G04 #@! TF.FileFunction,Copper,L2,Bot,Signal*
%FSLAX46Y46*%
G04 Gerber Fmt 4.6, Leading zero omitted, Abs format (unit mm)*
G04 Created by KiCad (PCBNEW 4.0.7) date 07/27/18 12:45:35*
%MOMM*%
%LPD*%
G01*
G04 APERTURE LIST*
%ADD10C,0.100000*%
%ADD11C,1.200000*%
%ADD12C,0.500000*%
%ADD13C,0.600000*%
%ADD14C,0.700000*%
%ADD15C,0.152400*%
%ADD16C,0.500000*%
%ADD17C,0.127000*%
%ADD18C,0.254000*%
G04 APERTURE END LIST*
D10*
D11*
X155080000Y-107730000D03*
X155080000Y-110270000D03*
X152540000Y-107730000D03*
X152540000Y-110270000D03*
X150000000Y-107730000D03*
X150000000Y-110270000D03*
X147460000Y-107730000D03*
X147460000Y-110270000D03*
X144920000Y-107730000D03*
X144920000Y-110270000D03*
D12*
X148300000Y-109000000D03*
X148900000Y-108400000D03*
X153800000Y-108200000D03*
X155800000Y-104400000D03*
X155800000Y-105700000D03*
X151200000Y-108200000D03*
D13*
X146000000Y-92100000D03*
D14*
X146900000Y-105100000D03*
D13*
X152500000Y-90500000D03*
X147502410Y-90500000D03*
X150800000Y-88900000D03*
X150000000Y-88900000D03*
X149200000Y-88900000D03*
X144000000Y-92300000D03*
X158400000Y-98600000D03*
X147600000Y-97800000D03*
X147600000Y-99400000D03*
D14*
X147500000Y-102300000D03*
X142700000Y-110000000D03*
D12*
X143500000Y-95500000D03*
X143500000Y-101200000D03*
X143500000Y-103700000D03*
X151800000Y-96800000D03*
X151000000Y-96400000D03*
D14*
X150500000Y-109000000D03*
D12*
X155000000Y-93600000D03*
X157100000Y-90900000D03*
X154200000Y-93600000D03*
X155800000Y-90900000D03*
X153400000Y-93600000D03*
X154500000Y-90900000D03*
D15*
X147460000Y-110270000D02*
X148300000Y-109430000D01*
X148300000Y-109430000D02*
X148300000Y-109000000D01*
X150000000Y-110270000D02*
X148900000Y-109170000D01*
X148900000Y-109170000D02*
X148900000Y-108400000D01*
X155080000Y-110270000D02*
X153800000Y-108990000D01*
X153800000Y-108990000D02*
X153800000Y-108200000D01*
X155800000Y-105700000D02*
X155800000Y-104400000D01*
X152540000Y-110270000D02*
X151200000Y-108930000D01*
X151200000Y-108930000D02*
X151200000Y-108200000D01*
X143500000Y-101200000D02*
X143500000Y-95500000D01*
X147460000Y-107730000D02*
X143500000Y-103770000D01*
X143500000Y-103770000D02*
X143500000Y-103700000D01*
X151800000Y-96800000D02*
X151800000Y-106990000D01*
X151800000Y-106990000D02*
X152540000Y-107730000D01*
X153200000Y-106500000D02*
X153850000Y-106500000D01*
X153850000Y-106500000D02*
X155080000Y-107730000D01*
X152500000Y-105800000D02*
X153200000Y-106500000D01*
X152500000Y-96600000D02*
X152500000Y-105800000D01*
X152200000Y-96300000D02*
X152500000Y-96600000D01*
X151453553Y-96300000D02*
X152200000Y-96300000D01*
X151000000Y-96400000D02*
X151353553Y-96400000D01*
X151353553Y-96400000D02*
X151453553Y-96300000D01*
D16*
X150000000Y-107730000D02*
X150000000Y-108500000D01*
X150000000Y-108500000D02*
X150500000Y-109000000D01*
D17*
X157100000Y-90900000D02*
X157100000Y-91500000D01*
X157100000Y-91500000D02*
X155000000Y-93600000D01*
X155800000Y-90900000D02*
X155800000Y-92000000D01*
X155800000Y-92000000D02*
X154200000Y-93600000D01*
X154500000Y-90900000D02*
X154500000Y-92500000D01*
X154500000Y-92500000D02*
X153400000Y-93600000D01*
D18*
G36*
X161373000Y-97447394D02*
X159910197Y-98910197D01*
X159883006Y-98950590D01*
X159873000Y-99000000D01*
X159873000Y-111373000D01*
X140127000Y-111373000D01*
X140127000Y-110951007D01*
X144271520Y-110951007D01*
X144323275Y-111130452D01*
X144697978Y-111293311D01*
X145106483Y-111300380D01*
X145486598Y-111150583D01*
X145516725Y-111130452D01*
X145568480Y-110951007D01*
X144920000Y-110302527D01*
X144271520Y-110951007D01*
X140127000Y-110951007D01*
X140127000Y-110456483D01*
X143889620Y-110456483D01*
X144039417Y-110836598D01*
X144059548Y-110866725D01*
X144238993Y-110918480D01*
X144887473Y-110270000D01*
X144952527Y-110270000D01*
X145601007Y-110918480D01*
X145780452Y-110866725D01*
X145943311Y-110492022D01*
X145950380Y-110083517D01*
X145800583Y-109703402D01*
X145780452Y-109673275D01*
X145601007Y-109621520D01*
X144952527Y-110270000D01*
X144887473Y-110270000D01*
X144238993Y-109621520D01*
X144059548Y-109673275D01*
X143896689Y-110047978D01*
X143889620Y-110456483D01*
X140127000Y-110456483D01*
X140127000Y-109588993D01*
X144271520Y-109588993D01*
X144920000Y-110237473D01*
X145568480Y-109588993D01*
X145516725Y-109409548D01*
X145142022Y-109246689D01*
X144733517Y-109239620D01*
X144353402Y-109389417D01*
X144323275Y-109409548D01*
X144271520Y-109588993D01*
X140127000Y-109588993D01*
X140127000Y-108411007D01*
X144271520Y-108411007D01*
X144323275Y-108590452D01*
X144697978Y-108753311D01*
X145106483Y-108760380D01*
X145486598Y-108610583D01*
X145516725Y-108590452D01*
X145568480Y-108411007D01*
X144920000Y-107762527D01*
X144271520Y-108411007D01*
X140127000Y-108411007D01*
X140127000Y-107916483D01*
X143889620Y-107916483D01*
X144039417Y-108296598D01*
X144059548Y-108326725D01*
X144238993Y-108378480D01*
X144887473Y-107730000D01*
X144952527Y-107730000D01*
X145601007Y-108378480D01*
X145780452Y-108326725D01*
X145943311Y-107952022D01*
X145950380Y-107543517D01*
X145800583Y-107163402D01*
X145780452Y-107133275D01*
X145601007Y-107081520D01*
X144952527Y-107730000D01*
X144887473Y-107730000D01*
X144238993Y-107081520D01*
X144059548Y-107133275D01*
X143896689Y-107507978D01*
X143889620Y-107916483D01*
X140127000Y-107916483D01*
X140127000Y-107048993D01*
X144271520Y-107048993D01*
X144920000Y-107697473D01*
X145568480Y-107048993D01*
X145516725Y-106869548D01*
X145142022Y-106706689D01*
X144733517Y-106699620D01*
X144353402Y-106849417D01*
X144323275Y-106869548D01*
X144271520Y-107048993D01*
X140127000Y-107048993D01*
X140127000Y-103834073D01*
X142822883Y-103834073D01*
X142925733Y-104082989D01*
X143116010Y-104273598D01*
X143364746Y-104376882D01*
X143395277Y-104376909D01*
X146465456Y-107447088D01*
X146433179Y-107524821D01*
X146432822Y-107933387D01*
X146588844Y-108310989D01*
X146877492Y-108600140D01*
X147254821Y-108756821D01*
X147663387Y-108757178D01*
X147668695Y-108754985D01*
X147623118Y-108864746D01*
X147622883Y-109134073D01*
X147668542Y-109244575D01*
X147665179Y-109243179D01*
X147256613Y-109242822D01*
X146879011Y-109398844D01*
X146589860Y-109687492D01*
X146433179Y-110064821D01*
X146432822Y-110473387D01*
X146588844Y-110850989D01*
X146877492Y-111140140D01*
X147254821Y-111296821D01*
X147663387Y-111297178D01*
X148040989Y-111141156D01*
X148330140Y-110852508D01*
X148486821Y-110475179D01*
X148487178Y-110066613D01*
X148454385Y-109987247D01*
X148655816Y-109785816D01*
X148715244Y-109696876D01*
X149005456Y-109987088D01*
X148973179Y-110064821D01*
X148972822Y-110473387D01*
X149128844Y-110850989D01*
X149417492Y-111140140D01*
X149794821Y-111296821D01*
X150203387Y-111297178D01*
X150580989Y-111141156D01*
X150870140Y-110852508D01*
X151026821Y-110475179D01*
X151027178Y-110066613D01*
X150871156Y-109689011D01*
X150869986Y-109687839D01*
X150939560Y-109659092D01*
X151078631Y-109520263D01*
X151545456Y-109987088D01*
X151513179Y-110064821D01*
X151512822Y-110473387D01*
X151668844Y-110850989D01*
X151957492Y-111140140D01*
X152334821Y-111296821D01*
X152743387Y-111297178D01*
X153120989Y-111141156D01*
X153410140Y-110852508D01*
X153566821Y-110475179D01*
X153567178Y-110066613D01*
X153411156Y-109689011D01*
X153122508Y-109399860D01*
X152745179Y-109243179D01*
X152336613Y-109242822D01*
X152257247Y-109275615D01*
X151703200Y-108721568D01*
X151703200Y-108654265D01*
X151773598Y-108583990D01*
X151822884Y-108465297D01*
X151957492Y-108600140D01*
X152334821Y-108756821D01*
X152743387Y-108757178D01*
X153120989Y-108601156D01*
X153200460Y-108521823D01*
X153225733Y-108582989D01*
X153296800Y-108654180D01*
X153296800Y-108990000D01*
X153335104Y-109182566D01*
X153444184Y-109345816D01*
X154085456Y-109987088D01*
X154053179Y-110064821D01*
X154052822Y-110473387D01*
X154208844Y-110850989D01*
X154497492Y-111140140D01*
X154874821Y-111296821D01*
X155283387Y-111297178D01*
X155660989Y-111141156D01*
X155950140Y-110852508D01*
X156106821Y-110475179D01*
X156107178Y-110066613D01*
X155951156Y-109689011D01*
X155662508Y-109399860D01*
X155285179Y-109243179D01*
X154876613Y-109242822D01*
X154797247Y-109275615D01*
X154303200Y-108781568D01*
X154303200Y-108654265D01*
X154373598Y-108583990D01*
X154405258Y-108507745D01*
X154497492Y-108600140D01*
X154874821Y-108756821D01*
X155283387Y-108757178D01*
X155660989Y-108601156D01*
X155950140Y-108312508D01*
X156106821Y-107935179D01*
X156107178Y-107526613D01*
X155951156Y-107149011D01*
X155662508Y-106859860D01*
X155285179Y-106703179D01*
X154876613Y-106702822D01*
X154797247Y-106735615D01*
X154205816Y-106144184D01*
X154042566Y-106035104D01*
X153850000Y-105996800D01*
X153408432Y-105996800D01*
X153003200Y-105591568D01*
X153003200Y-104534073D01*
X155122883Y-104534073D01*
X155225733Y-104782989D01*
X155296800Y-104854180D01*
X155296800Y-105245735D01*
X155226402Y-105316010D01*
X155123118Y-105564746D01*
X155122883Y-105834073D01*
X155225733Y-106082989D01*
X155416010Y-106273598D01*
X155664746Y-106376882D01*
X155934073Y-106377117D01*
X156182989Y-106274267D01*
X156373598Y-106083990D01*
X156476882Y-105835254D01*
X156477117Y-105565927D01*
X156374267Y-105317011D01*
X156303200Y-105245820D01*
X156303200Y-104854265D01*
X156373598Y-104783990D01*
X156476882Y-104535254D01*
X156477117Y-104265927D01*
X156374267Y-104017011D01*
X156183990Y-103826402D01*
X155935254Y-103723118D01*
X155665927Y-103722883D01*
X155417011Y-103825733D01*
X155226402Y-104016010D01*
X155123118Y-104264746D01*
X155122883Y-104534073D01*
X153003200Y-104534073D01*
X153003200Y-96600000D01*
X152964896Y-96407434D01*
X152855816Y-96244184D01*
X152555816Y-95944184D01*
X152392566Y-95835104D01*
X152200000Y-95796800D01*
X151453553Y-95796800D01*
X151358320Y-95815743D01*
X151135254Y-95723118D01*
X150865927Y-95722883D01*
X150617011Y-95825733D01*
X150426402Y-96016010D01*
X150323118Y-96264746D01*
X150322883Y-96534073D01*
X150425733Y-96782989D01*
X150616010Y-96973598D01*
X150864746Y-97076882D01*
X151134073Y-97077117D01*
X151175000Y-97060206D01*
X151225733Y-97182989D01*
X151296800Y-97254180D01*
X151296800Y-106990000D01*
X151335104Y-107182566D01*
X151444184Y-107345816D01*
X151545456Y-107447088D01*
X151513179Y-107524821D01*
X151513116Y-107596973D01*
X151335254Y-107523118D01*
X151065927Y-107522883D01*
X151027167Y-107538898D01*
X151027178Y-107526613D01*
X150871156Y-107149011D01*
X150582508Y-106859860D01*
X150205179Y-106703179D01*
X149796613Y-106702822D01*
X149419011Y-106858844D01*
X149129860Y-107147492D01*
X148973179Y-107524821D01*
X148973006Y-107723064D01*
X148765927Y-107722883D01*
X148517011Y-107825733D01*
X148486890Y-107855801D01*
X148487178Y-107526613D01*
X148331156Y-107149011D01*
X148042508Y-106859860D01*
X147665179Y-106703179D01*
X147256613Y-106702822D01*
X147177247Y-106735615D01*
X144176969Y-103735337D01*
X144177117Y-103565927D01*
X144074267Y-103317011D01*
X143883990Y-103126402D01*
X143635254Y-103023118D01*
X143365927Y-103022883D01*
X143117011Y-103125733D01*
X142926402Y-103316010D01*
X142823118Y-103564746D01*
X142822883Y-103834073D01*
X140127000Y-103834073D01*
X140127000Y-99000000D01*
X140117666Y-98952211D01*
X140089803Y-98910197D01*
X138627000Y-97447394D01*
X138627000Y-95634073D01*
X142822883Y-95634073D01*
X142925733Y-95882989D01*
X142996800Y-95954180D01*
X142996800Y-100745735D01*
X142926402Y-100816010D01*
X142823118Y-101064746D01*
X142822883Y-101334073D01*
X142925733Y-101582989D01*
X143116010Y-101773598D01*
X143364746Y-101876882D01*
X143634073Y-101877117D01*
X143882989Y-101774267D01*
X144073598Y-101583990D01*
X144176882Y-101335254D01*
X144177117Y-101065927D01*
X144074267Y-100817011D01*
X144003200Y-100745820D01*
X144003200Y-95954265D01*
X144073598Y-95883990D01*
X144176882Y-95635254D01*
X144177117Y-95365927D01*
X144074267Y-95117011D01*
X143883990Y-94926402D01*
X143635254Y-94823118D01*
X143365927Y-94822883D01*
X143117011Y-94925733D01*
X142926402Y-95116010D01*
X142823118Y-95364746D01*
X142822883Y-95634073D01*
X138627000Y-95634073D01*
X138627000Y-93734073D01*
X152722883Y-93734073D01*
X152825733Y-93982989D01*
X153016010Y-94173598D01*
X153264746Y-94276882D01*
X153534073Y-94277117D01*
X153782989Y-94174267D01*
X153799863Y-94157423D01*
X153816010Y-94173598D01*
X154064746Y-94276882D01*
X154334073Y-94277117D01*
X154582989Y-94174267D01*
X154599863Y-94157423D01*
X154616010Y-94173598D01*
X154864746Y-94276882D01*
X155134073Y-94277117D01*
X155382989Y-94174267D01*
X155573598Y-93983990D01*
X155676882Y-93735254D01*
X155676985Y-93616687D01*
X157446836Y-91846836D01*
X157553162Y-91687707D01*
X157553163Y-91687706D01*
X157590500Y-91500000D01*
X157590500Y-91366943D01*
X157673598Y-91283990D01*
X157776882Y-91035254D01*
X157777117Y-90765927D01*
X157674267Y-90517011D01*
X157483990Y-90326402D01*
X157235254Y-90223118D01*
X156965927Y-90222883D01*
X156717011Y-90325733D01*
X156526402Y-90516010D01*
X156449940Y-90700152D01*
X156374267Y-90517011D01*
X156183990Y-90326402D01*
X155935254Y-90223118D01*
X155665927Y-90222883D01*
X155417011Y-90325733D01*
X155226402Y-90516010D01*
X155149940Y-90700152D01*
X155074267Y-90517011D01*
X154883990Y-90326402D01*
X154635254Y-90223118D01*
X154365927Y-90222883D01*
X154117011Y-90325733D01*
X153926402Y-90516010D01*
X153823118Y-90764746D01*
X153822883Y-91034073D01*
X153925733Y-91282989D01*
X154009500Y-91366902D01*
X154009500Y-92296828D01*
X153383343Y-92922985D01*
X153265927Y-92922883D01*
X153017011Y-93025733D01*
X152826402Y-93216010D01*
X152723118Y-93464746D01*
X152722883Y-93734073D01*
X138627000Y-93734073D01*
X138627000Y-88627000D01*
X161373000Y-88627000D01*
X161373000Y-97447394D01*
X161373000Y-97447394D01*
G37*
X161373000Y-97447394D02*
X159910197Y-98910197D01*
X159883006Y-98950590D01*
X159873000Y-99000000D01*
X159873000Y-111373000D01*
X140127000Y-111373000D01*
X140127000Y-110951007D01*
X144271520Y-110951007D01*
X144323275Y-111130452D01*
X144697978Y-111293311D01*
X145106483Y-111300380D01*
X145486598Y-111150583D01*
X145516725Y-111130452D01*
X145568480Y-110951007D01*
X144920000Y-110302527D01*
X144271520Y-110951007D01*
X140127000Y-110951007D01*
X140127000Y-110456483D01*
X143889620Y-110456483D01*
X144039417Y-110836598D01*
X144059548Y-110866725D01*
X144238993Y-110918480D01*
X144887473Y-110270000D01*
X144952527Y-110270000D01*
X145601007Y-110918480D01*
X145780452Y-110866725D01*
X145943311Y-110492022D01*
X145950380Y-110083517D01*
X145800583Y-109703402D01*
X145780452Y-109673275D01*
X145601007Y-109621520D01*
X144952527Y-110270000D01*
X144887473Y-110270000D01*
X144238993Y-109621520D01*
X144059548Y-109673275D01*
X143896689Y-110047978D01*
X143889620Y-110456483D01*
X140127000Y-110456483D01*
X140127000Y-109588993D01*
X144271520Y-109588993D01*
X144920000Y-110237473D01*
X145568480Y-109588993D01*
X145516725Y-109409548D01*
X145142022Y-109246689D01*
X144733517Y-109239620D01*
X144353402Y-109389417D01*
X144323275Y-109409548D01*
X144271520Y-109588993D01*
X140127000Y-109588993D01*
X140127000Y-108411007D01*
X144271520Y-108411007D01*
X144323275Y-108590452D01*
X144697978Y-108753311D01*
X145106483Y-108760380D01*
X145486598Y-108610583D01*
X145516725Y-108590452D01*
X145568480Y-108411007D01*
X144920000Y-107762527D01*
X144271520Y-108411007D01*
X140127000Y-108411007D01*
X140127000Y-107916483D01*
X143889620Y-107916483D01*
X144039417Y-108296598D01*
X144059548Y-108326725D01*
X144238993Y-108378480D01*
X144887473Y-107730000D01*
X144952527Y-107730000D01*
X145601007Y-108378480D01*
X145780452Y-108326725D01*
X145943311Y-107952022D01*
X145950380Y-107543517D01*
X145800583Y-107163402D01*
X145780452Y-107133275D01*
X145601007Y-107081520D01*
X144952527Y-107730000D01*
X144887473Y-107730000D01*
X144238993Y-107081520D01*
X144059548Y-107133275D01*
X143896689Y-107507978D01*
X143889620Y-107916483D01*
X140127000Y-107916483D01*
X140127000Y-107048993D01*
X144271520Y-107048993D01*
X144920000Y-107697473D01*
X145568480Y-107048993D01*
X145516725Y-106869548D01*
X145142022Y-106706689D01*
X144733517Y-106699620D01*
X144353402Y-106849417D01*
X144323275Y-106869548D01*
X144271520Y-107048993D01*
X140127000Y-107048993D01*
X140127000Y-103834073D01*
X142822883Y-103834073D01*
X142925733Y-104082989D01*
X143116010Y-104273598D01*
X143364746Y-104376882D01*
X143395277Y-104376909D01*
X146465456Y-107447088D01*
X146433179Y-107524821D01*
X146432822Y-107933387D01*
X146588844Y-108310989D01*
X146877492Y-108600140D01*
X147254821Y-108756821D01*
X147663387Y-108757178D01*
X147668695Y-108754985D01*
X147623118Y-108864746D01*
X147622883Y-109134073D01*
X147668542Y-109244575D01*
X147665179Y-109243179D01*
X147256613Y-109242822D01*
X146879011Y-109398844D01*
X146589860Y-109687492D01*
X146433179Y-110064821D01*
X146432822Y-110473387D01*
X146588844Y-110850989D01*
X146877492Y-111140140D01*
X147254821Y-111296821D01*
X147663387Y-111297178D01*
X148040989Y-111141156D01*
X148330140Y-110852508D01*
X148486821Y-110475179D01*
X148487178Y-110066613D01*
X148454385Y-109987247D01*
X148655816Y-109785816D01*
X148715244Y-109696876D01*
X149005456Y-109987088D01*
X148973179Y-110064821D01*
X148972822Y-110473387D01*
X149128844Y-110850989D01*
X149417492Y-111140140D01*
X149794821Y-111296821D01*
X150203387Y-111297178D01*
X150580989Y-111141156D01*
X150870140Y-110852508D01*
X151026821Y-110475179D01*
X151027178Y-110066613D01*
X150871156Y-109689011D01*
X150869986Y-109687839D01*
X150939560Y-109659092D01*
X151078631Y-109520263D01*
X151545456Y-109987088D01*
X151513179Y-110064821D01*
X151512822Y-110473387D01*
X151668844Y-110850989D01*
X151957492Y-111140140D01*
X152334821Y-111296821D01*
X152743387Y-111297178D01*
X153120989Y-111141156D01*
X153410140Y-110852508D01*
X153566821Y-110475179D01*
X153567178Y-110066613D01*
X153411156Y-109689011D01*
X153122508Y-109399860D01*
X152745179Y-109243179D01*
X152336613Y-109242822D01*
X152257247Y-109275615D01*
X151703200Y-108721568D01*
X151703200Y-108654265D01*
X151773598Y-108583990D01*
X151822884Y-108465297D01*
X151957492Y-108600140D01*
X152334821Y-108756821D01*
X152743387Y-108757178D01*
X153120989Y-108601156D01*
X153200460Y-108521823D01*
X153225733Y-108582989D01*
X153296800Y-108654180D01*
X153296800Y-108990000D01*
X153335104Y-109182566D01*
X153444184Y-109345816D01*
X154085456Y-109987088D01*
X154053179Y-110064821D01*
X154052822Y-110473387D01*
X154208844Y-110850989D01*
X154497492Y-111140140D01*
X154874821Y-111296821D01*
X155283387Y-111297178D01*
X155660989Y-111141156D01*
X155950140Y-110852508D01*
X156106821Y-110475179D01*
X156107178Y-110066613D01*
X155951156Y-109689011D01*
X155662508Y-109399860D01*
X155285179Y-109243179D01*
X154876613Y-109242822D01*
X154797247Y-109275615D01*
X154303200Y-108781568D01*
X154303200Y-108654265D01*
X154373598Y-108583990D01*
X154405258Y-108507745D01*
X154497492Y-108600140D01*
X154874821Y-108756821D01*
X155283387Y-108757178D01*
X155660989Y-108601156D01*
X155950140Y-108312508D01*
X156106821Y-107935179D01*
X156107178Y-107526613D01*
X155951156Y-107149011D01*
X155662508Y-106859860D01*
X155285179Y-106703179D01*
X154876613Y-106702822D01*
X154797247Y-106735615D01*
X154205816Y-106144184D01*
X154042566Y-106035104D01*
X153850000Y-105996800D01*
X153408432Y-105996800D01*
X153003200Y-105591568D01*
X153003200Y-104534073D01*
X155122883Y-104534073D01*
X155225733Y-104782989D01*
X155296800Y-104854180D01*
X155296800Y-105245735D01*
X155226402Y-105316010D01*
X155123118Y-105564746D01*
X155122883Y-105834073D01*
X155225733Y-106082989D01*
X155416010Y-106273598D01*
X155664746Y-106376882D01*
X155934073Y-106377117D01*
X156182989Y-106274267D01*
X156373598Y-106083990D01*
X156476882Y-105835254D01*
X156477117Y-105565927D01*
X156374267Y-105317011D01*
X156303200Y-105245820D01*
X156303200Y-104854265D01*
X156373598Y-104783990D01*
X156476882Y-104535254D01*
X156477117Y-104265927D01*
X156374267Y-104017011D01*
X156183990Y-103826402D01*
X155935254Y-103723118D01*
X155665927Y-103722883D01*
X155417011Y-103825733D01*
X155226402Y-104016010D01*
X155123118Y-104264746D01*
X155122883Y-104534073D01*
X153003200Y-104534073D01*
X153003200Y-96600000D01*
X152964896Y-96407434D01*
X152855816Y-96244184D01*
X152555816Y-95944184D01*
X152392566Y-95835104D01*
X152200000Y-95796800D01*
X151453553Y-95796800D01*
X151358320Y-95815743D01*
X151135254Y-95723118D01*
X150865927Y-95722883D01*
X150617011Y-95825733D01*
X150426402Y-96016010D01*
X150323118Y-96264746D01*
X150322883Y-96534073D01*
X150425733Y-96782989D01*
X150616010Y-96973598D01*
X150864746Y-97076882D01*
X151134073Y-97077117D01*
X151175000Y-97060206D01*
X151225733Y-97182989D01*
X151296800Y-97254180D01*
X151296800Y-106990000D01*
X151335104Y-107182566D01*
X151444184Y-107345816D01*
X151545456Y-107447088D01*
X151513179Y-107524821D01*
X151513116Y-107596973D01*
X151335254Y-107523118D01*
X151065927Y-107522883D01*
X151027167Y-107538898D01*
X151027178Y-107526613D01*
X150871156Y-107149011D01*
X150582508Y-106859860D01*
X150205179Y-106703179D01*
X149796613Y-106702822D01*
X149419011Y-106858844D01*
X149129860Y-107147492D01*
X148973179Y-107524821D01*
X148973006Y-107723064D01*
X148765927Y-107722883D01*
X148517011Y-107825733D01*
X148486890Y-107855801D01*
X148487178Y-107526613D01*
X148331156Y-107149011D01*
X148042508Y-106859860D01*
X147665179Y-106703179D01*
X147256613Y-106702822D01*
X147177247Y-106735615D01*
X144176969Y-103735337D01*
X144177117Y-103565927D01*
X144074267Y-103317011D01*
X143883990Y-103126402D01*
X143635254Y-103023118D01*
X143365927Y-103022883D01*
X143117011Y-103125733D01*
X142926402Y-103316010D01*
X142823118Y-103564746D01*
X142822883Y-103834073D01*
X140127000Y-103834073D01*
X140127000Y-99000000D01*
X140117666Y-98952211D01*
X140089803Y-98910197D01*
X138627000Y-97447394D01*
X138627000Y-95634073D01*
X142822883Y-95634073D01*
X142925733Y-95882989D01*
X142996800Y-95954180D01*
X142996800Y-100745735D01*
X142926402Y-100816010D01*
X142823118Y-101064746D01*
X142822883Y-101334073D01*
X142925733Y-101582989D01*
X143116010Y-101773598D01*
X143364746Y-101876882D01*
X143634073Y-101877117D01*
X143882989Y-101774267D01*
X144073598Y-101583990D01*
X144176882Y-101335254D01*
X144177117Y-101065927D01*
X144074267Y-100817011D01*
X144003200Y-100745820D01*
X144003200Y-95954265D01*
X144073598Y-95883990D01*
X144176882Y-95635254D01*
X144177117Y-95365927D01*
X144074267Y-95117011D01*
X143883990Y-94926402D01*
X143635254Y-94823118D01*
X143365927Y-94822883D01*
X143117011Y-94925733D01*
X142926402Y-95116010D01*
X142823118Y-95364746D01*
X142822883Y-95634073D01*
X138627000Y-95634073D01*
X138627000Y-93734073D01*
X152722883Y-93734073D01*
X152825733Y-93982989D01*
X153016010Y-94173598D01*
X153264746Y-94276882D01*
X153534073Y-94277117D01*
X153782989Y-94174267D01*
X153799863Y-94157423D01*
X153816010Y-94173598D01*
X154064746Y-94276882D01*
X154334073Y-94277117D01*
X154582989Y-94174267D01*
X154599863Y-94157423D01*
X154616010Y-94173598D01*
X154864746Y-94276882D01*
X155134073Y-94277117D01*
X155382989Y-94174267D01*
X155573598Y-93983990D01*
X155676882Y-93735254D01*
X155676985Y-93616687D01*
X157446836Y-91846836D01*
X157553162Y-91687707D01*
X157553163Y-91687706D01*
X157590500Y-91500000D01*
X157590500Y-91366943D01*
X157673598Y-91283990D01*
X157776882Y-91035254D01*
X157777117Y-90765927D01*
X157674267Y-90517011D01*
X157483990Y-90326402D01*
X157235254Y-90223118D01*
X156965927Y-90222883D01*
X156717011Y-90325733D01*
X156526402Y-90516010D01*
X156449940Y-90700152D01*
X156374267Y-90517011D01*
X156183990Y-90326402D01*
X155935254Y-90223118D01*
X155665927Y-90222883D01*
X155417011Y-90325733D01*
X155226402Y-90516010D01*
X155149940Y-90700152D01*
X155074267Y-90517011D01*
X154883990Y-90326402D01*
X154635254Y-90223118D01*
X154365927Y-90222883D01*
X154117011Y-90325733D01*
X153926402Y-90516010D01*
X153823118Y-90764746D01*
X153822883Y-91034073D01*
X153925733Y-91282989D01*
X154009500Y-91366902D01*
X154009500Y-92296828D01*
X153383343Y-92922985D01*
X153265927Y-92922883D01*
X153017011Y-93025733D01*
X152826402Y-93216010D01*
X152723118Y-93464746D01*
X152722883Y-93734073D01*
X138627000Y-93734073D01*
X138627000Y-88627000D01*
X161373000Y-88627000D01*
X161373000Y-97447394D01*
M02*
