M48
;DRILL file {KiCad 4.0.7} date 07/27/18 12:42:55
;FORMAT={-:-/ absolute / metric / decimal}
FMAT,2
METRIC,TZ
T1C0.300
T2C0.400
T3C0.500
%
G90
G05
M71
T1
X143.5Y-95.5
X143.5Y-101.2
X143.5Y-103.7
X148.3Y-109.
X148.9Y-108.4
X151.Y-96.4
X151.2Y-108.2
X151.8Y-96.8
X153.4Y-93.6
X153.8Y-108.2
X154.2Y-93.6
X154.5Y-90.9
X155.Y-93.6
X155.8Y-90.9
X155.8Y-104.4
X155.8Y-105.7
X157.1Y-90.9
T2
X144.Y-92.3
X146.Y-92.1
X147.502Y-90.5
X147.6Y-97.8
X147.6Y-99.4
X149.2Y-88.9
X150.Y-88.9
X150.8Y-88.9
X152.5Y-90.5
X158.4Y-98.6
T3
X142.7Y-110.
X146.9Y-105.1
X147.5Y-102.3
X150.5Y-109.
T0
M30
