G04 #@! TF.FileFunction,Legend,Top*
%FSLAX46Y46*%
G04 Gerber Fmt 4.6, Leading zero omitted, Abs format (unit mm)*
G04 Created by KiCad (PCBNEW 4.0.7) date 07/27/18 12:45:35*
%MOMM*%
%LPD*%
G01*
G04 APERTURE LIST*
%ADD10C,0.100000*%
%ADD11C,0.150000*%
%ADD12C,0.120000*%
%ADD13C,0.066040*%
%ADD14C,0.127000*%
G04 APERTURE END LIST*
D10*
X145600000Y-91650000D02*
X145600000Y-90150000D01*
X146400000Y-91650000D02*
X145600000Y-91650000D01*
X146400000Y-90150000D02*
X146400000Y-91650000D01*
X145600000Y-90150000D02*
X146400000Y-90150000D01*
D11*
X149000000Y-95400000D02*
X149400000Y-95000000D01*
X156600000Y-95000000D02*
X157000000Y-95000000D01*
X157000000Y-95000000D02*
X157000000Y-95400000D01*
X149400000Y-103000000D02*
X149000000Y-103000000D01*
X149000000Y-103000000D02*
X149000000Y-102600000D01*
X156600000Y-103000000D02*
X157000000Y-103000000D01*
X157000000Y-103000000D02*
X157000000Y-102600000D01*
D12*
X142125000Y-109500000D02*
X142125000Y-107500000D01*
X140075000Y-107500000D02*
X140075000Y-109500000D01*
X153750000Y-111525000D02*
X146250000Y-111525000D01*
X146250000Y-111525000D02*
X146250000Y-111025000D01*
X146250000Y-111025000D02*
X153750000Y-111025000D01*
X153750000Y-111025000D02*
X153750000Y-111525000D01*
X155450000Y-108175000D02*
X155450000Y-106975000D01*
X155450000Y-106975000D02*
X153800000Y-106975000D01*
X153800000Y-106975000D02*
X153800000Y-107475000D01*
X153800000Y-107475000D02*
X154950000Y-107475000D01*
X154950000Y-107475000D02*
X154950000Y-108175000D01*
X154950000Y-108175000D02*
X155450000Y-108175000D01*
X144550000Y-108175000D02*
X144550000Y-106975000D01*
X144550000Y-106975000D02*
X146200000Y-106975000D01*
X146200000Y-106975000D02*
X146200000Y-107475000D01*
X146200000Y-107475000D02*
X145050000Y-107475000D01*
X145050000Y-107475000D02*
X145050000Y-108175000D01*
X145050000Y-108175000D02*
X144550000Y-108175000D01*
X154125000Y-106225000D02*
X154725000Y-105925000D01*
X154725000Y-105925000D02*
X154725000Y-106525000D01*
X154725000Y-106525000D02*
X154125000Y-106225000D01*
D11*
X159900000Y-107400000D02*
X158900000Y-108400000D01*
X158800000Y-108300000D02*
X159800000Y-107300000D01*
X159700000Y-107200000D02*
X158700000Y-108200000D01*
X158600000Y-108100000D02*
X159600000Y-107100000D01*
X159500000Y-107000000D02*
X158500000Y-108000000D01*
X158400000Y-107900000D02*
X159400000Y-106900000D01*
X159300000Y-106800000D02*
X158300000Y-107800000D01*
X158200000Y-107700000D02*
X159200000Y-106700000D01*
X159100000Y-106600000D02*
X158100000Y-107600000D01*
X160900000Y-106600000D02*
X160900000Y-109600000D01*
X160800000Y-109700000D02*
X160800000Y-106700000D01*
X160700000Y-106800000D02*
X160700000Y-109800000D01*
X160600000Y-109900000D02*
X160600000Y-106900000D01*
X160500000Y-107000000D02*
X160500000Y-110000000D01*
X160400000Y-110100000D02*
X160400000Y-107100000D01*
X160300000Y-107200000D02*
X160300000Y-110200000D01*
X160200000Y-110300000D02*
X160200000Y-107300000D01*
X160100000Y-107400000D02*
X160100000Y-110400000D01*
X160000000Y-110500000D02*
X160000000Y-107500000D01*
X159900000Y-107600000D02*
X159900000Y-110500000D01*
X159800000Y-110700000D02*
X159800000Y-107700000D01*
X159700000Y-107800000D02*
X159700000Y-110800000D01*
X159600000Y-110900000D02*
X159600000Y-107900000D01*
X159500000Y-108000000D02*
X159500000Y-111000000D01*
X159400000Y-111100000D02*
X159400000Y-108100000D01*
X159300000Y-108200000D02*
X159300000Y-111200000D01*
X159200000Y-111300000D02*
X159200000Y-108300000D01*
X159100000Y-108400000D02*
X159100000Y-111400000D01*
X157000000Y-106500000D02*
X159000000Y-108500000D01*
X159000000Y-108500000D02*
X159000000Y-111500000D01*
X159000000Y-111500000D02*
X157000000Y-109500000D01*
X157000000Y-109500000D02*
X157000000Y-106500000D01*
X161000000Y-106500000D02*
X159000000Y-108500000D01*
X159000000Y-108500000D02*
X159000000Y-111500000D01*
X159000000Y-111500000D02*
X161000000Y-109500000D01*
X161000000Y-109500000D02*
X161000000Y-106500000D01*
X159000000Y-106500000D02*
X158000000Y-107500000D01*
X158000000Y-107500000D02*
X159000000Y-108500000D01*
X159000000Y-108500000D02*
X160000000Y-107500000D01*
X160000000Y-107500000D02*
X159000000Y-106500000D01*
D12*
X143250000Y-105480000D02*
X142250000Y-105480000D01*
X142250000Y-104120000D02*
X143250000Y-104120000D01*
D13*
X142730000Y-91008000D02*
X145270000Y-91008000D01*
X145270000Y-91008000D02*
X145270000Y-89992000D01*
X142730000Y-89992000D02*
X145270000Y-89992000D01*
X142730000Y-91008000D02*
X142730000Y-89992000D01*
D14*
X144635000Y-89103000D02*
X144635000Y-91897000D01*
X144635000Y-91897000D02*
X143365000Y-91897000D01*
X143365000Y-91897000D02*
X143365000Y-89103000D01*
X143365000Y-89103000D02*
X144635000Y-89103000D01*
D11*
X148000000Y-89300000D02*
X147600000Y-89700000D01*
X152400000Y-89300000D02*
X152400000Y-91700000D01*
X148000000Y-89300000D02*
X152400000Y-89300000D01*
X147600000Y-91700000D02*
X147600000Y-89700000D01*
X152400000Y-91700000D02*
X147600000Y-91700000D01*
D10*
X143050000Y-103300000D02*
X141550000Y-103300000D01*
X143050000Y-102500000D02*
X143050000Y-103300000D01*
X141550000Y-102500000D02*
X143050000Y-102500000D01*
X141550000Y-103300000D02*
X141550000Y-102500000D01*
X154100000Y-90550000D02*
X154100000Y-89050000D01*
X154900000Y-90550000D02*
X154100000Y-90550000D01*
X154900000Y-89050000D02*
X154900000Y-90550000D01*
X154100000Y-89050000D02*
X154900000Y-89050000D01*
X155400000Y-90550000D02*
X155400000Y-89050000D01*
X156200000Y-90550000D02*
X155400000Y-90550000D01*
X156200000Y-89050000D02*
X156200000Y-90550000D01*
X155400000Y-89050000D02*
X156200000Y-89050000D01*
X156700000Y-90550000D02*
X156700000Y-89050000D01*
X157500000Y-90550000D02*
X156700000Y-90550000D01*
X157500000Y-89050000D02*
X157500000Y-90550000D01*
X156700000Y-89050000D02*
X157500000Y-89050000D01*
X158000000Y-90550000D02*
X158000000Y-89050000D01*
X158800000Y-90550000D02*
X158000000Y-90550000D01*
X158800000Y-89050000D02*
X158800000Y-90550000D01*
X158000000Y-89050000D02*
X158800000Y-89050000D01*
X146600000Y-103900000D02*
X146600000Y-103800000D01*
X145400000Y-103900000D02*
X146600000Y-103900000D01*
X145400000Y-103800000D02*
X145400000Y-103900000D01*
X145400000Y-102600000D02*
X145400000Y-103200000D01*
X146600000Y-102600000D02*
X146600000Y-103200000D01*
X146600000Y-101400000D02*
X146600000Y-102000000D01*
X145400000Y-101400000D02*
X145400000Y-102000000D01*
X145400000Y-100700000D02*
X145400000Y-100800000D01*
X146600000Y-100700000D02*
X146600000Y-100800000D01*
X145400000Y-100700000D02*
X146600000Y-100700000D01*
X146000000Y-97450000D02*
X146000000Y-98950000D01*
X145200000Y-97450000D02*
X146000000Y-97450000D01*
X145200000Y-98950000D02*
X145200000Y-97450000D01*
X146000000Y-98950000D02*
X145200000Y-98950000D01*
D11*
X146357143Y-93566666D02*
X146404762Y-93614285D01*
X146452381Y-93757142D01*
X146452381Y-93852380D01*
X146404762Y-93995238D01*
X146309524Y-94090476D01*
X146214286Y-94138095D01*
X146023810Y-94185714D01*
X145880952Y-94185714D01*
X145690476Y-94138095D01*
X145595238Y-94090476D01*
X145500000Y-93995238D01*
X145452381Y-93852380D01*
X145452381Y-93757142D01*
X145500000Y-93614285D01*
X145547619Y-93566666D01*
X145452381Y-93233333D02*
X145452381Y-92614285D01*
X145833333Y-92947619D01*
X145833333Y-92804761D01*
X145880952Y-92709523D01*
X145928571Y-92661904D01*
X146023810Y-92614285D01*
X146261905Y-92614285D01*
X146357143Y-92661904D01*
X146404762Y-92709523D01*
X146452381Y-92804761D01*
X146452381Y-93090476D01*
X146404762Y-93185714D01*
X146357143Y-93233333D01*
X146323810Y-95452381D02*
X146323810Y-94452381D01*
X147371429Y-95357143D02*
X147323810Y-95404762D01*
X147180953Y-95452381D01*
X147085715Y-95452381D01*
X146942857Y-95404762D01*
X146847619Y-95309524D01*
X146800000Y-95214286D01*
X146752381Y-95023810D01*
X146752381Y-94880952D01*
X146800000Y-94690476D01*
X146847619Y-94595238D01*
X146942857Y-94500000D01*
X147085715Y-94452381D01*
X147180953Y-94452381D01*
X147323810Y-94500000D01*
X147371429Y-94547619D01*
X148323810Y-95452381D02*
X147752381Y-95452381D01*
X148038095Y-95452381D02*
X148038095Y-94452381D01*
X147942857Y-94595238D01*
X147847619Y-94690476D01*
X147752381Y-94738095D01*
X143457143Y-108666666D02*
X143504762Y-108714285D01*
X143552381Y-108857142D01*
X143552381Y-108952380D01*
X143504762Y-109095238D01*
X143409524Y-109190476D01*
X143314286Y-109238095D01*
X143123810Y-109285714D01*
X142980952Y-109285714D01*
X142790476Y-109238095D01*
X142695238Y-109190476D01*
X142600000Y-109095238D01*
X142552381Y-108952380D01*
X142552381Y-108857142D01*
X142600000Y-108714285D01*
X142647619Y-108666666D01*
X142647619Y-108285714D02*
X142600000Y-108238095D01*
X142552381Y-108142857D01*
X142552381Y-107904761D01*
X142600000Y-107809523D01*
X142647619Y-107761904D01*
X142742857Y-107714285D01*
X142838095Y-107714285D01*
X142980952Y-107761904D01*
X143552381Y-108333333D01*
X143552381Y-107714285D01*
X142661905Y-111552381D02*
X142661905Y-110552381D01*
X143042858Y-110552381D01*
X143138096Y-110600000D01*
X143185715Y-110647619D01*
X143233334Y-110742857D01*
X143233334Y-110885714D01*
X143185715Y-110980952D01*
X143138096Y-111028571D01*
X143042858Y-111076190D01*
X142661905Y-111076190D01*
X144185715Y-111552381D02*
X143614286Y-111552381D01*
X143900000Y-111552381D02*
X143900000Y-110552381D01*
X143804762Y-110695238D01*
X143709524Y-110790476D01*
X143614286Y-110838095D01*
X140433334Y-105252381D02*
X139957143Y-105252381D01*
X139957143Y-104252381D01*
X141290477Y-105252381D02*
X140719048Y-105252381D01*
X141004762Y-105252381D02*
X141004762Y-104252381D01*
X140909524Y-104395238D01*
X140814286Y-104490476D01*
X140719048Y-104538095D01*
X144357143Y-93666666D02*
X144404762Y-93714285D01*
X144452381Y-93857142D01*
X144452381Y-93952380D01*
X144404762Y-94095238D01*
X144309524Y-94190476D01*
X144214286Y-94238095D01*
X144023810Y-94285714D01*
X143880952Y-94285714D01*
X143690476Y-94238095D01*
X143595238Y-94190476D01*
X143500000Y-94095238D01*
X143452381Y-93952380D01*
X143452381Y-93857142D01*
X143500000Y-93714285D01*
X143547619Y-93666666D01*
X143785714Y-92809523D02*
X144452381Y-92809523D01*
X143404762Y-93047619D02*
X144119048Y-93285714D01*
X144119048Y-92666666D01*
X149238095Y-91952381D02*
X149238095Y-92761905D01*
X149285714Y-92857143D01*
X149333333Y-92904762D01*
X149428571Y-92952381D01*
X149619048Y-92952381D01*
X149714286Y-92904762D01*
X149761905Y-92857143D01*
X149809524Y-92761905D01*
X149809524Y-91952381D01*
X150809524Y-92952381D02*
X150238095Y-92952381D01*
X150523809Y-92952381D02*
X150523809Y-91952381D01*
X150428571Y-92095238D01*
X150333333Y-92190476D01*
X150238095Y-92238095D01*
X140383334Y-103352381D02*
X140050000Y-102876190D01*
X139811905Y-103352381D02*
X139811905Y-102352381D01*
X140192858Y-102352381D01*
X140288096Y-102400000D01*
X140335715Y-102447619D01*
X140383334Y-102542857D01*
X140383334Y-102685714D01*
X140335715Y-102780952D01*
X140288096Y-102828571D01*
X140192858Y-102876190D01*
X139811905Y-102876190D01*
X141335715Y-103352381D02*
X140764286Y-103352381D01*
X141050000Y-103352381D02*
X141050000Y-102352381D01*
X140954762Y-102495238D01*
X140859524Y-102590476D01*
X140764286Y-102638095D01*
X154952381Y-92366666D02*
X154476190Y-92700000D01*
X154952381Y-92938095D02*
X153952381Y-92938095D01*
X153952381Y-92557142D01*
X154000000Y-92461904D01*
X154047619Y-92414285D01*
X154142857Y-92366666D01*
X154285714Y-92366666D01*
X154380952Y-92414285D01*
X154428571Y-92461904D01*
X154476190Y-92557142D01*
X154476190Y-92938095D01*
X153952381Y-91461904D02*
X153952381Y-91938095D01*
X154428571Y-91985714D01*
X154380952Y-91938095D01*
X154333333Y-91842857D01*
X154333333Y-91604761D01*
X154380952Y-91509523D01*
X154428571Y-91461904D01*
X154523810Y-91414285D01*
X154761905Y-91414285D01*
X154857143Y-91461904D01*
X154904762Y-91509523D01*
X154952381Y-91604761D01*
X154952381Y-91842857D01*
X154904762Y-91938095D01*
X154857143Y-91985714D01*
X156252381Y-92366666D02*
X155776190Y-92700000D01*
X156252381Y-92938095D02*
X155252381Y-92938095D01*
X155252381Y-92557142D01*
X155300000Y-92461904D01*
X155347619Y-92414285D01*
X155442857Y-92366666D01*
X155585714Y-92366666D01*
X155680952Y-92414285D01*
X155728571Y-92461904D01*
X155776190Y-92557142D01*
X155776190Y-92938095D01*
X155585714Y-91509523D02*
X156252381Y-91509523D01*
X155204762Y-91747619D02*
X155919048Y-91985714D01*
X155919048Y-91366666D01*
X157552381Y-92366666D02*
X157076190Y-92700000D01*
X157552381Y-92938095D02*
X156552381Y-92938095D01*
X156552381Y-92557142D01*
X156600000Y-92461904D01*
X156647619Y-92414285D01*
X156742857Y-92366666D01*
X156885714Y-92366666D01*
X156980952Y-92414285D01*
X157028571Y-92461904D01*
X157076190Y-92557142D01*
X157076190Y-92938095D01*
X156552381Y-92033333D02*
X156552381Y-91414285D01*
X156933333Y-91747619D01*
X156933333Y-91604761D01*
X156980952Y-91509523D01*
X157028571Y-91461904D01*
X157123810Y-91414285D01*
X157361905Y-91414285D01*
X157457143Y-91461904D01*
X157504762Y-91509523D01*
X157552381Y-91604761D01*
X157552381Y-91890476D01*
X157504762Y-91985714D01*
X157457143Y-92033333D01*
X158852381Y-92366666D02*
X158376190Y-92700000D01*
X158852381Y-92938095D02*
X157852381Y-92938095D01*
X157852381Y-92557142D01*
X157900000Y-92461904D01*
X157947619Y-92414285D01*
X158042857Y-92366666D01*
X158185714Y-92366666D01*
X158280952Y-92414285D01*
X158328571Y-92461904D01*
X158376190Y-92557142D01*
X158376190Y-92938095D01*
X157947619Y-91985714D02*
X157900000Y-91938095D01*
X157852381Y-91842857D01*
X157852381Y-91604761D01*
X157900000Y-91509523D01*
X157947619Y-91461904D01*
X158042857Y-91414285D01*
X158138095Y-91414285D01*
X158280952Y-91461904D01*
X158852381Y-92033333D01*
X158852381Y-91414285D01*
X144276190Y-102776191D02*
X144752381Y-102776191D01*
X143752381Y-103109524D02*
X144276190Y-102776191D01*
X143752381Y-102442857D01*
X144752381Y-101585714D02*
X144752381Y-102157143D01*
X144752381Y-101871429D02*
X143752381Y-101871429D01*
X143895238Y-101966667D01*
X143990476Y-102061905D01*
X144038095Y-102157143D01*
X145433334Y-100007143D02*
X145385715Y-100054762D01*
X145242858Y-100102381D01*
X145147620Y-100102381D01*
X145004762Y-100054762D01*
X144909524Y-99959524D01*
X144861905Y-99864286D01*
X144814286Y-99673810D01*
X144814286Y-99530952D01*
X144861905Y-99340476D01*
X144909524Y-99245238D01*
X145004762Y-99150000D01*
X145147620Y-99102381D01*
X145242858Y-99102381D01*
X145385715Y-99150000D01*
X145433334Y-99197619D01*
X146385715Y-100102381D02*
X145814286Y-100102381D01*
X146100000Y-100102381D02*
X146100000Y-99102381D01*
X146004762Y-99245238D01*
X145909524Y-99340476D01*
X145814286Y-99388095D01*
M02*
