G04 #@! TF.FileFunction,Copper,L1,Top,Signal*
%FSLAX46Y46*%
G04 Gerber Fmt 4.6, Leading zero omitted, Abs format (unit mm)*
G04 Created by KiCad (PCBNEW 4.0.7) date 07/27/18 12:45:35*
%MOMM*%
%LPD*%
G01*
G04 APERTURE LIST*
%ADD10C,0.100000*%
%ADD11R,0.500000X0.400000*%
%ADD12O,1.500000X0.500000*%
%ADD13O,0.500000X1.500000*%
%ADD14R,1.600000X1.000000*%
%ADD15R,0.600000X1.800000*%
%ADD16R,1.000000X2.800000*%
%ADD17R,0.500000X0.900000*%
%ADD18R,0.889000X0.889000*%
%ADD19R,0.580000X0.500000*%
%ADD20R,0.500000X0.500000*%
%ADD21R,0.400000X0.500000*%
%ADD22R,1.900000X0.400000*%
%ADD23C,0.500000*%
%ADD24C,0.600000*%
%ADD25C,0.700000*%
%ADD26C,0.152400*%
%ADD27C,0.127000*%
%ADD28C,0.200000*%
%ADD29C,0.500000*%
%ADD30C,0.300000*%
%ADD31C,0.254000*%
G04 APERTURE END LIST*
D10*
D11*
X146000000Y-90500000D03*
X146000000Y-91300000D03*
D12*
X149000000Y-96200000D03*
X149000000Y-97000000D03*
X149000000Y-97800000D03*
X149000000Y-98600000D03*
X149000000Y-99400000D03*
X149000000Y-100200000D03*
X149000000Y-101000000D03*
X149000000Y-101800000D03*
D13*
X150200000Y-103000000D03*
X151000000Y-103000000D03*
X151800000Y-103000000D03*
X152600000Y-103000000D03*
X153400000Y-103000000D03*
X154200000Y-103000000D03*
X155000000Y-103000000D03*
X155800000Y-103000000D03*
D12*
X157000000Y-101800000D03*
X157000000Y-101000000D03*
X157000000Y-100200000D03*
X157000000Y-99400000D03*
X157000000Y-98600000D03*
X157000000Y-97800000D03*
X157000000Y-97000000D03*
X157000000Y-96200000D03*
D13*
X155800000Y-95000000D03*
X155000000Y-95000000D03*
X154200000Y-95000000D03*
X153400000Y-95000000D03*
X152600000Y-95000000D03*
X151800000Y-95000000D03*
X151000000Y-95000000D03*
X150200000Y-95000000D03*
D14*
X141100000Y-107000000D03*
X141100000Y-110000000D03*
D15*
X153125000Y-106725000D03*
X151875000Y-106725000D03*
X150625000Y-106725000D03*
X149375000Y-106725000D03*
X148125000Y-106725000D03*
X146875000Y-106725000D03*
D16*
X145150000Y-110075000D03*
X154850000Y-110075000D03*
D17*
X142000000Y-104800000D03*
X143500000Y-104800000D03*
D18*
X144000000Y-89738000D03*
X144000000Y-91262000D03*
D19*
X148360000Y-89700000D03*
D20*
X149200000Y-89700000D03*
X150000000Y-89700000D03*
X150800000Y-89700000D03*
X151600000Y-89700000D03*
X151600000Y-90500000D03*
X151600000Y-91300000D03*
X150800000Y-91300000D03*
X150000000Y-91300000D03*
X149200000Y-91300000D03*
X148400000Y-91300000D03*
X148400000Y-90500000D03*
D21*
X141900000Y-102900000D03*
X142700000Y-102900000D03*
D11*
X154500000Y-89400000D03*
X154500000Y-90200000D03*
X155800000Y-89400000D03*
X155800000Y-90200000D03*
X157100000Y-89400000D03*
X157100000Y-90200000D03*
X158400000Y-89400000D03*
X158400000Y-90200000D03*
D22*
X146000000Y-103500000D03*
X146000000Y-102300000D03*
X146000000Y-101100000D03*
D11*
X145600000Y-98600000D03*
X145600000Y-97800000D03*
D23*
X148300000Y-109000000D03*
X148900000Y-108400000D03*
X153800000Y-108200000D03*
X155800000Y-104400000D03*
X155800000Y-105700000D03*
X151200000Y-108200000D03*
D24*
X146000000Y-92100000D03*
D25*
X146900000Y-105100000D03*
D24*
X152500000Y-90500000D03*
X147502410Y-90500000D03*
X150800000Y-88900000D03*
X150000000Y-88900000D03*
X149200000Y-88900000D03*
X144000000Y-92300000D03*
X158400000Y-98600000D03*
X147600000Y-97800000D03*
X147600000Y-99400000D03*
D25*
X147500000Y-102300000D03*
X142700000Y-110000000D03*
D23*
X143500000Y-95500000D03*
X143500000Y-101200000D03*
X143500000Y-103700000D03*
X151800000Y-96800000D03*
X151000000Y-96400000D03*
D25*
X150500000Y-109000000D03*
D23*
X155000000Y-93600000D03*
X157100000Y-90900000D03*
X154200000Y-93600000D03*
X155800000Y-90900000D03*
X153400000Y-93600000D03*
X154500000Y-90900000D03*
D26*
X148125000Y-106725000D02*
X148125000Y-108825000D01*
X148125000Y-108825000D02*
X148300000Y-109000000D01*
X148125000Y-106725000D02*
X148125000Y-106125000D01*
X153802400Y-104300000D02*
X154200000Y-103902400D01*
X148125000Y-106125000D02*
X149950000Y-104300000D01*
X149950000Y-104300000D02*
X153802400Y-104300000D01*
X154200000Y-103902400D02*
X154200000Y-103000000D01*
X149375000Y-106725000D02*
X149375000Y-107925000D01*
X149375000Y-107925000D02*
X148900000Y-108400000D01*
X154400000Y-104700000D02*
X155000000Y-104100000D01*
X155000000Y-104100000D02*
X155000000Y-103000000D01*
X150347600Y-104700000D02*
X154400000Y-104700000D01*
X149375000Y-106725000D02*
X149375000Y-105672600D01*
X149375000Y-105672600D02*
X150347600Y-104700000D01*
X153400000Y-108200000D02*
X153125000Y-107925000D01*
X153125000Y-107925000D02*
X153125000Y-106725000D01*
X153800000Y-108200000D02*
X153400000Y-108200000D01*
X155800000Y-104400000D02*
X155800000Y-103000000D01*
X153125000Y-106725000D02*
X153577400Y-106725000D01*
X153577400Y-106725000D02*
X154602400Y-105700000D01*
X154602400Y-105700000D02*
X155800000Y-105700000D01*
X150800000Y-108200000D02*
X150625000Y-108025000D01*
X150625000Y-108025000D02*
X150625000Y-106725000D01*
X151200000Y-108200000D02*
X150800000Y-108200000D01*
X155800000Y-105100000D02*
X157000000Y-103900000D01*
X157000000Y-103900000D02*
X157000000Y-101800000D01*
X151000000Y-105100000D02*
X155800000Y-105100000D01*
X150625000Y-105475000D02*
X151000000Y-105100000D01*
X150625000Y-106725000D02*
X150625000Y-105475000D01*
D27*
X147500000Y-102300000D02*
X147005026Y-102300000D01*
X147005026Y-102300000D02*
X146000000Y-102300000D01*
D28*
X148400000Y-90500000D02*
X147502410Y-90500000D01*
X151600000Y-90500000D02*
X152500000Y-90500000D01*
X150800000Y-89700000D02*
X150800000Y-88900000D01*
X150000000Y-89700000D02*
X150000000Y-88900000D01*
X149200000Y-89700000D02*
X149200000Y-88900000D01*
X146000000Y-91300000D02*
X146000000Y-92100000D01*
D29*
X146875000Y-106725000D02*
X146875000Y-105125000D01*
X146875000Y-105125000D02*
X146900000Y-105100000D01*
D30*
X144000000Y-91262000D02*
X144000000Y-92300000D01*
X157000000Y-98600000D02*
X158400000Y-98600000D01*
X149000000Y-97800000D02*
X147600000Y-97800000D01*
X149000000Y-99400000D02*
X147600000Y-99400000D01*
D29*
X141100000Y-110000000D02*
X142700000Y-110000000D01*
D28*
X145600000Y-98600000D02*
X145600000Y-99350000D01*
D29*
X140300000Y-104800000D02*
X140300000Y-102900000D01*
X140300000Y-102900000D02*
X140300000Y-102400000D01*
D27*
X141900000Y-102900000D02*
X140300000Y-102900000D01*
X154600000Y-88800000D02*
X155800000Y-88800000D01*
X155800000Y-88800000D02*
X157100000Y-88800000D01*
X155800000Y-89400000D02*
X155800000Y-88800000D01*
X157100000Y-88800000D02*
X158400000Y-88800000D01*
X157100000Y-89400000D02*
X157100000Y-88800000D01*
X158400000Y-88800000D02*
X160300000Y-88800000D01*
X158400000Y-89400000D02*
X158400000Y-89073000D01*
X158400000Y-89073000D02*
X158400000Y-88800000D01*
X154500000Y-89400000D02*
X154500000Y-88900000D01*
X154500000Y-88900000D02*
X154600000Y-88800000D01*
X161300000Y-97400000D02*
X159800000Y-98900000D01*
X160300000Y-88800000D02*
X161300000Y-89800000D01*
X161300000Y-89800000D02*
X161300000Y-97400000D01*
D28*
X148362000Y-89738000D02*
X146900000Y-89738000D01*
X146900000Y-89738000D02*
X146000000Y-89738000D01*
X147400000Y-91300000D02*
X146900000Y-90800000D01*
X146900000Y-90800000D02*
X146900000Y-89738000D01*
X148400000Y-91300000D02*
X147400000Y-91300000D01*
X146000000Y-89738000D02*
X144000000Y-89738000D01*
X146000000Y-90500000D02*
X146000000Y-89738000D01*
X148400000Y-89700000D02*
X148362000Y-89738000D01*
D29*
X140300000Y-90300000D02*
X140862000Y-89738000D01*
X140862000Y-89738000D02*
X144000000Y-89738000D01*
X140300000Y-102400000D02*
X140300000Y-99300000D01*
X140300000Y-99300000D02*
X140300000Y-90300000D01*
X145600000Y-99350000D02*
X140350000Y-99350000D01*
X140350000Y-99350000D02*
X140300000Y-99300000D01*
D30*
X149000000Y-100200000D02*
X150050000Y-100200000D01*
X150050000Y-100200000D02*
X150850000Y-101000000D01*
X150850000Y-101000000D02*
X155950000Y-101000000D01*
X155950000Y-101000000D02*
X157000000Y-101000000D01*
X145600000Y-99350000D02*
X146275000Y-99350000D01*
X146275000Y-99350000D02*
X147125000Y-100200000D01*
X147125000Y-100200000D02*
X147950000Y-100200000D01*
X147950000Y-100200000D02*
X149000000Y-100200000D01*
X146275000Y-99350000D02*
X147025000Y-98600000D01*
X147025000Y-98600000D02*
X147950000Y-98600000D01*
X147950000Y-98600000D02*
X149000000Y-98600000D01*
D29*
X140300000Y-105200000D02*
X140300000Y-104800000D01*
X142000000Y-104800000D02*
X140300000Y-104800000D01*
X141100000Y-107000000D02*
X141100000Y-106000000D01*
X141100000Y-106000000D02*
X140300000Y-105200000D01*
D26*
X157000000Y-101000000D02*
X159400000Y-101000000D01*
X159400000Y-101000000D02*
X159800000Y-100600000D01*
X159800000Y-100600000D02*
X159800000Y-98900000D01*
X143500000Y-103700000D02*
X143500000Y-102900000D01*
X143500000Y-102900000D02*
X143500000Y-102400000D01*
D27*
X142700000Y-102900000D02*
X143500000Y-102900000D01*
D26*
X143500000Y-95500000D02*
X143500000Y-95100000D01*
X143500000Y-102400000D02*
X143500000Y-101200000D01*
X152400000Y-93800000D02*
X152600000Y-94000000D01*
X152600000Y-94000000D02*
X152600000Y-95000000D01*
X144800000Y-93800000D02*
X152400000Y-93800000D01*
X143500000Y-95100000D02*
X144800000Y-93800000D01*
X151800000Y-95000000D02*
X151800000Y-96800000D01*
X151000000Y-95000000D02*
X151000000Y-96400000D01*
D30*
X149000000Y-101000000D02*
X146101120Y-101000000D01*
X146101120Y-101000000D02*
X146000000Y-101101120D01*
X147850000Y-103500000D02*
X147848880Y-103498880D01*
X147848880Y-103498880D02*
X146000000Y-103498880D01*
X149000000Y-101800000D02*
X149000000Y-102350000D01*
X149000000Y-102350000D02*
X147850000Y-103500000D01*
D29*
X151875000Y-106725000D02*
X151875000Y-109000000D01*
X151875000Y-109000000D02*
X151875000Y-110925000D01*
X150500000Y-109000000D02*
X150994974Y-109000000D01*
X150994974Y-109000000D02*
X151875000Y-109000000D01*
X151875000Y-110925000D02*
X151400000Y-111400000D01*
X146172599Y-108172599D02*
X144900000Y-106900000D01*
X151400000Y-111400000D02*
X146800000Y-111400000D01*
X146800000Y-111400000D02*
X146172599Y-110772599D01*
X146172599Y-110772599D02*
X146172599Y-108172599D01*
X144900000Y-106900000D02*
X143900000Y-106900000D01*
X143900000Y-106900000D02*
X143500000Y-106500000D01*
X143500000Y-106500000D02*
X143500000Y-104800000D01*
D27*
X158400000Y-90200000D02*
X158400000Y-90527000D01*
X158400000Y-90527000D02*
X155800000Y-93127000D01*
X155800000Y-93127000D02*
X155800000Y-93200000D01*
X151600000Y-89700000D02*
X152600000Y-89700000D01*
X152600000Y-89700000D02*
X153028602Y-90128602D01*
X153028602Y-90128602D02*
X153028602Y-92228602D01*
X153028602Y-92228602D02*
X153300000Y-92500000D01*
X153300000Y-92500000D02*
X155100000Y-92500000D01*
X155100000Y-92500000D02*
X155800000Y-93200000D01*
X155800000Y-93200000D02*
X155800000Y-95000000D01*
X151900000Y-92800000D02*
X151600000Y-92500000D01*
X151600000Y-92500000D02*
X151600000Y-91300000D01*
X154600000Y-92800000D02*
X151900000Y-92800000D01*
X155000000Y-93200000D02*
X154600000Y-92800000D01*
X155000000Y-93600000D02*
X155000000Y-93200000D01*
X155000000Y-95000000D02*
X155000000Y-93600000D01*
X157100000Y-90200000D02*
X157100000Y-90900000D01*
X150200000Y-93100000D02*
X150000000Y-92900000D01*
X150000000Y-92900000D02*
X150000000Y-91300000D01*
X154053553Y-93100000D02*
X150200000Y-93100000D01*
X154200000Y-93600000D02*
X154200000Y-93246447D01*
X154200000Y-93246447D02*
X154053553Y-93100000D01*
X154200000Y-95000000D02*
X154200000Y-93600000D01*
X155800000Y-90200000D02*
X155800000Y-90900000D01*
X152846447Y-93400000D02*
X149400000Y-93400000D01*
X149400000Y-93400000D02*
X149200000Y-93200000D01*
X153400000Y-93600000D02*
X153046447Y-93600000D01*
X153046447Y-93600000D02*
X152846447Y-93400000D01*
X149200000Y-91300000D02*
X149200000Y-93200000D01*
X153400000Y-95000000D02*
X153400000Y-93600000D01*
X154500000Y-90200000D02*
X154500000Y-90900000D01*
D31*
G36*
X141387927Y-103453567D02*
X141530619Y-103551064D01*
X141700000Y-103585365D01*
X142100000Y-103585365D01*
X142258237Y-103555591D01*
X142298925Y-103529409D01*
X142330619Y-103551064D01*
X142500000Y-103585365D01*
X142823100Y-103585365D01*
X142822883Y-103834073D01*
X142921931Y-104073787D01*
X142848936Y-104180619D01*
X142814635Y-104350000D01*
X142814635Y-105250000D01*
X142823000Y-105294457D01*
X142823000Y-106500000D01*
X142874534Y-106759077D01*
X142938461Y-106854750D01*
X143021289Y-106978711D01*
X143421288Y-107378711D01*
X143485776Y-107421800D01*
X143640923Y-107525466D01*
X143900000Y-107577000D01*
X144619578Y-107577000D01*
X145282213Y-108239635D01*
X144650000Y-108239635D01*
X144491763Y-108269409D01*
X144346433Y-108362927D01*
X144248936Y-108505619D01*
X144214635Y-108675000D01*
X144214635Y-111373000D01*
X140127000Y-111373000D01*
X140127000Y-110890523D01*
X140215064Y-110927000D01*
X140970250Y-110927000D01*
X141077000Y-110820250D01*
X141077000Y-110023000D01*
X141123000Y-110023000D01*
X141123000Y-110820250D01*
X141229750Y-110927000D01*
X141984936Y-110927000D01*
X142141876Y-110861993D01*
X142261993Y-110741876D01*
X142327000Y-110584935D01*
X142327000Y-110129750D01*
X142220250Y-110023000D01*
X141123000Y-110023000D01*
X141077000Y-110023000D01*
X141057000Y-110023000D01*
X141057000Y-109977000D01*
X141077000Y-109977000D01*
X141077000Y-109179750D01*
X141123000Y-109179750D01*
X141123000Y-109977000D01*
X142220250Y-109977000D01*
X142327000Y-109870250D01*
X142327000Y-109415065D01*
X142261993Y-109258124D01*
X142141876Y-109138007D01*
X141984936Y-109073000D01*
X141229750Y-109073000D01*
X141123000Y-109179750D01*
X141077000Y-109179750D01*
X140970250Y-109073000D01*
X140215064Y-109073000D01*
X140127000Y-109109477D01*
X140127000Y-107898591D01*
X140130619Y-107901064D01*
X140300000Y-107935365D01*
X141900000Y-107935365D01*
X142058237Y-107905591D01*
X142203567Y-107812073D01*
X142301064Y-107669381D01*
X142335365Y-107500000D01*
X142335365Y-106500000D01*
X142305591Y-106341763D01*
X142212073Y-106196433D01*
X142069381Y-106098936D01*
X141900000Y-106064635D01*
X141777000Y-106064635D01*
X141777000Y-106000000D01*
X141725466Y-105740923D01*
X141678695Y-105670925D01*
X141750000Y-105685365D01*
X142250000Y-105685365D01*
X142408237Y-105655591D01*
X142553567Y-105562073D01*
X142651064Y-105419381D01*
X142685365Y-105250000D01*
X142685365Y-104350000D01*
X142655591Y-104191763D01*
X142562073Y-104046433D01*
X142419381Y-103948936D01*
X142250000Y-103914635D01*
X141750000Y-103914635D01*
X141591763Y-103944409D01*
X141446433Y-104037927D01*
X141388305Y-104123000D01*
X140977000Y-104123000D01*
X140977000Y-103390500D01*
X141347344Y-103390500D01*
X141387927Y-103453567D01*
X141387927Y-103453567D01*
G37*
X141387927Y-103453567D02*
X141530619Y-103551064D01*
X141700000Y-103585365D01*
X142100000Y-103585365D01*
X142258237Y-103555591D01*
X142298925Y-103529409D01*
X142330619Y-103551064D01*
X142500000Y-103585365D01*
X142823100Y-103585365D01*
X142822883Y-103834073D01*
X142921931Y-104073787D01*
X142848936Y-104180619D01*
X142814635Y-104350000D01*
X142814635Y-105250000D01*
X142823000Y-105294457D01*
X142823000Y-106500000D01*
X142874534Y-106759077D01*
X142938461Y-106854750D01*
X143021289Y-106978711D01*
X143421288Y-107378711D01*
X143485776Y-107421800D01*
X143640923Y-107525466D01*
X143900000Y-107577000D01*
X144619578Y-107577000D01*
X145282213Y-108239635D01*
X144650000Y-108239635D01*
X144491763Y-108269409D01*
X144346433Y-108362927D01*
X144248936Y-108505619D01*
X144214635Y-108675000D01*
X144214635Y-111373000D01*
X140127000Y-111373000D01*
X140127000Y-110890523D01*
X140215064Y-110927000D01*
X140970250Y-110927000D01*
X141077000Y-110820250D01*
X141077000Y-110023000D01*
X141123000Y-110023000D01*
X141123000Y-110820250D01*
X141229750Y-110927000D01*
X141984936Y-110927000D01*
X142141876Y-110861993D01*
X142261993Y-110741876D01*
X142327000Y-110584935D01*
X142327000Y-110129750D01*
X142220250Y-110023000D01*
X141123000Y-110023000D01*
X141077000Y-110023000D01*
X141057000Y-110023000D01*
X141057000Y-109977000D01*
X141077000Y-109977000D01*
X141077000Y-109179750D01*
X141123000Y-109179750D01*
X141123000Y-109977000D01*
X142220250Y-109977000D01*
X142327000Y-109870250D01*
X142327000Y-109415065D01*
X142261993Y-109258124D01*
X142141876Y-109138007D01*
X141984936Y-109073000D01*
X141229750Y-109073000D01*
X141123000Y-109179750D01*
X141077000Y-109179750D01*
X140970250Y-109073000D01*
X140215064Y-109073000D01*
X140127000Y-109109477D01*
X140127000Y-107898591D01*
X140130619Y-107901064D01*
X140300000Y-107935365D01*
X141900000Y-107935365D01*
X142058237Y-107905591D01*
X142203567Y-107812073D01*
X142301064Y-107669381D01*
X142335365Y-107500000D01*
X142335365Y-106500000D01*
X142305591Y-106341763D01*
X142212073Y-106196433D01*
X142069381Y-106098936D01*
X141900000Y-106064635D01*
X141777000Y-106064635D01*
X141777000Y-106000000D01*
X141725466Y-105740923D01*
X141678695Y-105670925D01*
X141750000Y-105685365D01*
X142250000Y-105685365D01*
X142408237Y-105655591D01*
X142553567Y-105562073D01*
X142651064Y-105419381D01*
X142685365Y-105250000D01*
X142685365Y-104350000D01*
X142655591Y-104191763D01*
X142562073Y-104046433D01*
X142419381Y-103948936D01*
X142250000Y-103914635D01*
X141750000Y-103914635D01*
X141591763Y-103944409D01*
X141446433Y-104037927D01*
X141388305Y-104123000D01*
X140977000Y-104123000D01*
X140977000Y-103390500D01*
X141347344Y-103390500D01*
X141387927Y-103453567D01*
G36*
X146531999Y-100423000D02*
X146101120Y-100423000D01*
X145891809Y-100464635D01*
X145050000Y-100464635D01*
X144891763Y-100494409D01*
X144746433Y-100587927D01*
X144648936Y-100730619D01*
X144614635Y-100900000D01*
X144614635Y-101300000D01*
X144644409Y-101458237D01*
X144737927Y-101603567D01*
X144880619Y-101701064D01*
X144891831Y-101703334D01*
X144808124Y-101738007D01*
X144688007Y-101858124D01*
X144623000Y-102015065D01*
X144623000Y-102170250D01*
X144729750Y-102277000D01*
X145977000Y-102277000D01*
X145977000Y-102257000D01*
X146023000Y-102257000D01*
X146023000Y-102277000D01*
X147270250Y-102277000D01*
X147377000Y-102170250D01*
X147377000Y-102015065D01*
X147311993Y-101858124D01*
X147191876Y-101738007D01*
X147110344Y-101704235D01*
X147253567Y-101612073D01*
X147277531Y-101577000D01*
X147844299Y-101577000D01*
X147799941Y-101800000D01*
X147851475Y-102059077D01*
X147998230Y-102278711D01*
X148152325Y-102381674D01*
X147612118Y-102921880D01*
X147152961Y-102921880D01*
X147119381Y-102898936D01*
X147108169Y-102896666D01*
X147191876Y-102861993D01*
X147311993Y-102741876D01*
X147377000Y-102584935D01*
X147377000Y-102429750D01*
X147270250Y-102323000D01*
X146023000Y-102323000D01*
X146023000Y-102343000D01*
X145977000Y-102343000D01*
X145977000Y-102323000D01*
X144729750Y-102323000D01*
X144623000Y-102429750D01*
X144623000Y-102584935D01*
X144688007Y-102741876D01*
X144808124Y-102861993D01*
X144889656Y-102895765D01*
X144746433Y-102987927D01*
X144648936Y-103130619D01*
X144614635Y-103300000D01*
X144614635Y-103700000D01*
X144644409Y-103858237D01*
X144737927Y-104003567D01*
X144880619Y-104101064D01*
X145050000Y-104135365D01*
X146950000Y-104135365D01*
X147108237Y-104105591D01*
X147154409Y-104075880D01*
X147844365Y-104075880D01*
X147850000Y-104077001D01*
X148070808Y-104033078D01*
X148258001Y-103908001D01*
X149407998Y-102758003D01*
X149408001Y-102758001D01*
X149523000Y-102585891D01*
X149523000Y-103523059D01*
X149574534Y-103782136D01*
X149655456Y-103903244D01*
X149594184Y-103944184D01*
X148148733Y-105389635D01*
X147825000Y-105389635D01*
X147666763Y-105419409D01*
X147521433Y-105512927D01*
X147499255Y-105545386D01*
X147416876Y-105463007D01*
X147259935Y-105398000D01*
X147004750Y-105398000D01*
X146898000Y-105504750D01*
X146898000Y-106702000D01*
X146918000Y-106702000D01*
X146918000Y-106748000D01*
X146898000Y-106748000D01*
X146898000Y-107945250D01*
X147004750Y-108052000D01*
X147259935Y-108052000D01*
X147416876Y-107986993D01*
X147498195Y-107905674D01*
X147512927Y-107928567D01*
X147621800Y-108002957D01*
X147621800Y-108825000D01*
X147627572Y-108854019D01*
X147623118Y-108864746D01*
X147622883Y-109134073D01*
X147725733Y-109382989D01*
X147916010Y-109573598D01*
X148164746Y-109676882D01*
X148434073Y-109677117D01*
X148682989Y-109574267D01*
X148873598Y-109383990D01*
X148976882Y-109135254D01*
X148976933Y-109077067D01*
X149034073Y-109077117D01*
X149282989Y-108974267D01*
X149473598Y-108783990D01*
X149576882Y-108535254D01*
X149576970Y-108434662D01*
X149730816Y-108280816D01*
X149839896Y-108117567D01*
X149860714Y-108012910D01*
X149978567Y-107937073D01*
X149999081Y-107907050D01*
X150012927Y-107928567D01*
X150121800Y-108002957D01*
X150121800Y-108025000D01*
X150160104Y-108217566D01*
X150203125Y-108281952D01*
X150060440Y-108340908D01*
X149841676Y-108559290D01*
X149723135Y-108844767D01*
X149722866Y-109153877D01*
X149840908Y-109439560D01*
X150059290Y-109658324D01*
X150344767Y-109776865D01*
X150653877Y-109777134D01*
X150896219Y-109677000D01*
X151198000Y-109677000D01*
X151198000Y-110644577D01*
X151119578Y-110723000D01*
X147080422Y-110723000D01*
X146849599Y-110492177D01*
X146849599Y-108172599D01*
X146812278Y-107984972D01*
X146852000Y-107945250D01*
X146852000Y-106748000D01*
X146254750Y-106748000D01*
X146148000Y-106854750D01*
X146148000Y-107190578D01*
X145378711Y-106421289D01*
X145259692Y-106341763D01*
X145159077Y-106274534D01*
X144900000Y-106223000D01*
X144180423Y-106223000D01*
X144177000Y-106219578D01*
X144177000Y-105740064D01*
X146148000Y-105740064D01*
X146148000Y-106595250D01*
X146254750Y-106702000D01*
X146852000Y-106702000D01*
X146852000Y-105504750D01*
X146745250Y-105398000D01*
X146490065Y-105398000D01*
X146333124Y-105463007D01*
X146213007Y-105583124D01*
X146148000Y-105740064D01*
X144177000Y-105740064D01*
X144177000Y-105291307D01*
X144185365Y-105250000D01*
X144185365Y-104350000D01*
X144155591Y-104191763D01*
X144078556Y-104072049D01*
X144176882Y-103835254D01*
X144177117Y-103565927D01*
X144074267Y-103317011D01*
X144003200Y-103245820D01*
X144003200Y-101654265D01*
X144073598Y-101583990D01*
X144176882Y-101335254D01*
X144177117Y-101065927D01*
X144074267Y-100817011D01*
X143883990Y-100626402D01*
X143635254Y-100523118D01*
X143365927Y-100522883D01*
X143117011Y-100625733D01*
X142926402Y-100816010D01*
X142823118Y-101064746D01*
X142822883Y-101334073D01*
X142925733Y-101582989D01*
X142996800Y-101654180D01*
X142996800Y-102234238D01*
X142900000Y-102214635D01*
X142500000Y-102214635D01*
X142341763Y-102244409D01*
X142301075Y-102270591D01*
X142269381Y-102248936D01*
X142100000Y-102214635D01*
X141700000Y-102214635D01*
X141541763Y-102244409D01*
X141396433Y-102337927D01*
X141347529Y-102409500D01*
X140977000Y-102409500D01*
X140977000Y-100027000D01*
X145600000Y-100027000D01*
X145859077Y-99975466D01*
X145931611Y-99927000D01*
X146035998Y-99927000D01*
X146531999Y-100423000D01*
X146531999Y-100423000D01*
G37*
X146531999Y-100423000D02*
X146101120Y-100423000D01*
X145891809Y-100464635D01*
X145050000Y-100464635D01*
X144891763Y-100494409D01*
X144746433Y-100587927D01*
X144648936Y-100730619D01*
X144614635Y-100900000D01*
X144614635Y-101300000D01*
X144644409Y-101458237D01*
X144737927Y-101603567D01*
X144880619Y-101701064D01*
X144891831Y-101703334D01*
X144808124Y-101738007D01*
X144688007Y-101858124D01*
X144623000Y-102015065D01*
X144623000Y-102170250D01*
X144729750Y-102277000D01*
X145977000Y-102277000D01*
X145977000Y-102257000D01*
X146023000Y-102257000D01*
X146023000Y-102277000D01*
X147270250Y-102277000D01*
X147377000Y-102170250D01*
X147377000Y-102015065D01*
X147311993Y-101858124D01*
X147191876Y-101738007D01*
X147110344Y-101704235D01*
X147253567Y-101612073D01*
X147277531Y-101577000D01*
X147844299Y-101577000D01*
X147799941Y-101800000D01*
X147851475Y-102059077D01*
X147998230Y-102278711D01*
X148152325Y-102381674D01*
X147612118Y-102921880D01*
X147152961Y-102921880D01*
X147119381Y-102898936D01*
X147108169Y-102896666D01*
X147191876Y-102861993D01*
X147311993Y-102741876D01*
X147377000Y-102584935D01*
X147377000Y-102429750D01*
X147270250Y-102323000D01*
X146023000Y-102323000D01*
X146023000Y-102343000D01*
X145977000Y-102343000D01*
X145977000Y-102323000D01*
X144729750Y-102323000D01*
X144623000Y-102429750D01*
X144623000Y-102584935D01*
X144688007Y-102741876D01*
X144808124Y-102861993D01*
X144889656Y-102895765D01*
X144746433Y-102987927D01*
X144648936Y-103130619D01*
X144614635Y-103300000D01*
X144614635Y-103700000D01*
X144644409Y-103858237D01*
X144737927Y-104003567D01*
X144880619Y-104101064D01*
X145050000Y-104135365D01*
X146950000Y-104135365D01*
X147108237Y-104105591D01*
X147154409Y-104075880D01*
X147844365Y-104075880D01*
X147850000Y-104077001D01*
X148070808Y-104033078D01*
X148258001Y-103908001D01*
X149407998Y-102758003D01*
X149408001Y-102758001D01*
X149523000Y-102585891D01*
X149523000Y-103523059D01*
X149574534Y-103782136D01*
X149655456Y-103903244D01*
X149594184Y-103944184D01*
X148148733Y-105389635D01*
X147825000Y-105389635D01*
X147666763Y-105419409D01*
X147521433Y-105512927D01*
X147499255Y-105545386D01*
X147416876Y-105463007D01*
X147259935Y-105398000D01*
X147004750Y-105398000D01*
X146898000Y-105504750D01*
X146898000Y-106702000D01*
X146918000Y-106702000D01*
X146918000Y-106748000D01*
X146898000Y-106748000D01*
X146898000Y-107945250D01*
X147004750Y-108052000D01*
X147259935Y-108052000D01*
X147416876Y-107986993D01*
X147498195Y-107905674D01*
X147512927Y-107928567D01*
X147621800Y-108002957D01*
X147621800Y-108825000D01*
X147627572Y-108854019D01*
X147623118Y-108864746D01*
X147622883Y-109134073D01*
X147725733Y-109382989D01*
X147916010Y-109573598D01*
X148164746Y-109676882D01*
X148434073Y-109677117D01*
X148682989Y-109574267D01*
X148873598Y-109383990D01*
X148976882Y-109135254D01*
X148976933Y-109077067D01*
X149034073Y-109077117D01*
X149282989Y-108974267D01*
X149473598Y-108783990D01*
X149576882Y-108535254D01*
X149576970Y-108434662D01*
X149730816Y-108280816D01*
X149839896Y-108117567D01*
X149860714Y-108012910D01*
X149978567Y-107937073D01*
X149999081Y-107907050D01*
X150012927Y-107928567D01*
X150121800Y-108002957D01*
X150121800Y-108025000D01*
X150160104Y-108217566D01*
X150203125Y-108281952D01*
X150060440Y-108340908D01*
X149841676Y-108559290D01*
X149723135Y-108844767D01*
X149722866Y-109153877D01*
X149840908Y-109439560D01*
X150059290Y-109658324D01*
X150344767Y-109776865D01*
X150653877Y-109777134D01*
X150896219Y-109677000D01*
X151198000Y-109677000D01*
X151198000Y-110644577D01*
X151119578Y-110723000D01*
X147080422Y-110723000D01*
X146849599Y-110492177D01*
X146849599Y-108172599D01*
X146812278Y-107984972D01*
X146852000Y-107945250D01*
X146852000Y-106748000D01*
X146254750Y-106748000D01*
X146148000Y-106854750D01*
X146148000Y-107190578D01*
X145378711Y-106421289D01*
X145259692Y-106341763D01*
X145159077Y-106274534D01*
X144900000Y-106223000D01*
X144180423Y-106223000D01*
X144177000Y-106219578D01*
X144177000Y-105740064D01*
X146148000Y-105740064D01*
X146148000Y-106595250D01*
X146254750Y-106702000D01*
X146852000Y-106702000D01*
X146852000Y-105504750D01*
X146745250Y-105398000D01*
X146490065Y-105398000D01*
X146333124Y-105463007D01*
X146213007Y-105583124D01*
X146148000Y-105740064D01*
X144177000Y-105740064D01*
X144177000Y-105291307D01*
X144185365Y-105250000D01*
X144185365Y-104350000D01*
X144155591Y-104191763D01*
X144078556Y-104072049D01*
X144176882Y-103835254D01*
X144177117Y-103565927D01*
X144074267Y-103317011D01*
X144003200Y-103245820D01*
X144003200Y-101654265D01*
X144073598Y-101583990D01*
X144176882Y-101335254D01*
X144177117Y-101065927D01*
X144074267Y-100817011D01*
X143883990Y-100626402D01*
X143635254Y-100523118D01*
X143365927Y-100522883D01*
X143117011Y-100625733D01*
X142926402Y-100816010D01*
X142823118Y-101064746D01*
X142822883Y-101334073D01*
X142925733Y-101582989D01*
X142996800Y-101654180D01*
X142996800Y-102234238D01*
X142900000Y-102214635D01*
X142500000Y-102214635D01*
X142341763Y-102244409D01*
X142301075Y-102270591D01*
X142269381Y-102248936D01*
X142100000Y-102214635D01*
X141700000Y-102214635D01*
X141541763Y-102244409D01*
X141396433Y-102337927D01*
X141347529Y-102409500D01*
X140977000Y-102409500D01*
X140977000Y-100027000D01*
X145600000Y-100027000D01*
X145859077Y-99975466D01*
X145931611Y-99927000D01*
X146035998Y-99927000D01*
X146531999Y-100423000D01*
G36*
X160809500Y-90003172D02*
X160809500Y-97196828D01*
X159498309Y-98508019D01*
X159444184Y-98544184D01*
X159335104Y-98707434D01*
X159296800Y-98900000D01*
X159296800Y-100391568D01*
X159191568Y-100496800D01*
X158123319Y-100496800D01*
X158148525Y-100459077D01*
X158200059Y-100200000D01*
X158148525Y-99940923D01*
X158054363Y-99800000D01*
X158148525Y-99659077D01*
X158200059Y-99400000D01*
X158148525Y-99140923D01*
X158043647Y-98983962D01*
X158134268Y-98837828D01*
X158164681Y-98728562D01*
X158069786Y-98623000D01*
X157023000Y-98623000D01*
X157023000Y-98643000D01*
X156977000Y-98643000D01*
X156977000Y-98623000D01*
X155930214Y-98623000D01*
X155835319Y-98728562D01*
X155865732Y-98837828D01*
X155956353Y-98983962D01*
X155851475Y-99140923D01*
X155799941Y-99400000D01*
X155851475Y-99659077D01*
X155945637Y-99800000D01*
X155851475Y-99940923D01*
X155799941Y-100200000D01*
X155844299Y-100423000D01*
X151089002Y-100423000D01*
X150458001Y-99791999D01*
X150270808Y-99666922D01*
X150133201Y-99639549D01*
X150134268Y-99637828D01*
X150164681Y-99528562D01*
X150069786Y-99423000D01*
X149023000Y-99423000D01*
X149023000Y-99443000D01*
X148977000Y-99443000D01*
X148977000Y-99423000D01*
X147930214Y-99423000D01*
X147835319Y-99528562D01*
X147861605Y-99623000D01*
X147364001Y-99623000D01*
X147091001Y-99350000D01*
X147264001Y-99177000D01*
X147861605Y-99177000D01*
X147835319Y-99271438D01*
X147930214Y-99377000D01*
X148977000Y-99377000D01*
X148977000Y-99357000D01*
X149023000Y-99357000D01*
X149023000Y-99377000D01*
X150069786Y-99377000D01*
X150164681Y-99271438D01*
X150134268Y-99162172D01*
X150043647Y-99016038D01*
X150148525Y-98859077D01*
X150200059Y-98600000D01*
X150148525Y-98340923D01*
X150043647Y-98183962D01*
X150134268Y-98037828D01*
X150164681Y-97928562D01*
X150069786Y-97823000D01*
X149023000Y-97823000D01*
X149023000Y-97843000D01*
X148977000Y-97843000D01*
X148977000Y-97823000D01*
X147930214Y-97823000D01*
X147835319Y-97928562D01*
X147861605Y-98023000D01*
X147025000Y-98023000D01*
X146804192Y-98066922D01*
X146616999Y-98191999D01*
X146616997Y-98192002D01*
X146285365Y-98523634D01*
X146285365Y-98400000D01*
X146255591Y-98241763D01*
X146229095Y-98200588D01*
X146277000Y-98084936D01*
X146277000Y-97929750D01*
X146170250Y-97823000D01*
X145623000Y-97823000D01*
X145623000Y-97843000D01*
X145577000Y-97843000D01*
X145577000Y-97823000D01*
X145029750Y-97823000D01*
X144923000Y-97929750D01*
X144923000Y-98084936D01*
X144970358Y-98199267D01*
X144948936Y-98230619D01*
X144914635Y-98400000D01*
X144914635Y-98673000D01*
X140977000Y-98673000D01*
X140977000Y-97515064D01*
X144923000Y-97515064D01*
X144923000Y-97670250D01*
X145029750Y-97777000D01*
X145577000Y-97777000D01*
X145577000Y-97279750D01*
X145623000Y-97279750D01*
X145623000Y-97777000D01*
X146170250Y-97777000D01*
X146277000Y-97670250D01*
X146277000Y-97515064D01*
X146211993Y-97358124D01*
X146091876Y-97238007D01*
X145934935Y-97173000D01*
X145729750Y-97173000D01*
X145623000Y-97279750D01*
X145577000Y-97279750D01*
X145470250Y-97173000D01*
X145265065Y-97173000D01*
X145108124Y-97238007D01*
X144988007Y-97358124D01*
X144923000Y-97515064D01*
X140977000Y-97515064D01*
X140977000Y-91391750D01*
X143128500Y-91391750D01*
X143128500Y-91791435D01*
X143193507Y-91948376D01*
X143313624Y-92068493D01*
X143470564Y-92133500D01*
X143870250Y-92133500D01*
X143977000Y-92026750D01*
X143977000Y-91285000D01*
X144023000Y-91285000D01*
X144023000Y-92026750D01*
X144129750Y-92133500D01*
X144529436Y-92133500D01*
X144686376Y-92068493D01*
X144806493Y-91948376D01*
X144871500Y-91791435D01*
X144871500Y-91429750D01*
X145323000Y-91429750D01*
X145323000Y-91584936D01*
X145388007Y-91741876D01*
X145508124Y-91861993D01*
X145665065Y-91927000D01*
X145870250Y-91927000D01*
X145977000Y-91820250D01*
X145977000Y-91323000D01*
X145429750Y-91323000D01*
X145323000Y-91429750D01*
X144871500Y-91429750D01*
X144871500Y-91391750D01*
X144764750Y-91285000D01*
X144023000Y-91285000D01*
X143977000Y-91285000D01*
X143235250Y-91285000D01*
X143128500Y-91391750D01*
X140977000Y-91391750D01*
X140977000Y-90580422D01*
X141142422Y-90415000D01*
X143197696Y-90415000D01*
X143243427Y-90486067D01*
X143266975Y-90502156D01*
X143193507Y-90575624D01*
X143128500Y-90732565D01*
X143128500Y-91132250D01*
X143235250Y-91239000D01*
X143977000Y-91239000D01*
X143977000Y-91219000D01*
X144023000Y-91219000D01*
X144023000Y-91239000D01*
X144764750Y-91239000D01*
X144871500Y-91132250D01*
X144871500Y-90732565D01*
X144806493Y-90575624D01*
X144734301Y-90503432D01*
X144748067Y-90494573D01*
X144845564Y-90351881D01*
X144863158Y-90265000D01*
X145321723Y-90265000D01*
X145314635Y-90300000D01*
X145314635Y-90700000D01*
X145344409Y-90858237D01*
X145370905Y-90899412D01*
X145323000Y-91015064D01*
X145323000Y-91170250D01*
X145429750Y-91277000D01*
X145977000Y-91277000D01*
X145977000Y-91257000D01*
X146023000Y-91257000D01*
X146023000Y-91277000D01*
X146043000Y-91277000D01*
X146043000Y-91323000D01*
X146023000Y-91323000D01*
X146023000Y-91820250D01*
X146129750Y-91927000D01*
X146334935Y-91927000D01*
X146491876Y-91861993D01*
X146611993Y-91741876D01*
X146677000Y-91584936D01*
X146677000Y-91429750D01*
X146570252Y-91323002D01*
X146677000Y-91323002D01*
X146677000Y-91322290D01*
X147027355Y-91672645D01*
X147198326Y-91786885D01*
X147400000Y-91827000D01*
X147820831Y-91827000D01*
X147837927Y-91853567D01*
X147980619Y-91951064D01*
X148150000Y-91985365D01*
X148650000Y-91985365D01*
X148709500Y-91974169D01*
X148709500Y-93200000D01*
X148728755Y-93296800D01*
X144800000Y-93296800D01*
X144607434Y-93335104D01*
X144444184Y-93444184D01*
X143144184Y-94744184D01*
X143035104Y-94907434D01*
X143010269Y-95032290D01*
X142926402Y-95116010D01*
X142823118Y-95364746D01*
X142822883Y-95634073D01*
X142925733Y-95882989D01*
X143116010Y-96073598D01*
X143364746Y-96176882D01*
X143634073Y-96177117D01*
X143882989Y-96074267D01*
X144073598Y-95883990D01*
X144176882Y-95635254D01*
X144177117Y-95365927D01*
X144109456Y-95202176D01*
X145008432Y-94303200D01*
X149557559Y-94303200D01*
X149523000Y-94476941D01*
X149523000Y-95523000D01*
X148476941Y-95523000D01*
X148217864Y-95574534D01*
X147998230Y-95721289D01*
X147851475Y-95940923D01*
X147799941Y-96200000D01*
X147851475Y-96459077D01*
X147945637Y-96600000D01*
X147851475Y-96740923D01*
X147799941Y-97000000D01*
X147851475Y-97259077D01*
X147956353Y-97416038D01*
X147865732Y-97562172D01*
X147835319Y-97671438D01*
X147930214Y-97777000D01*
X148977000Y-97777000D01*
X148977000Y-97757000D01*
X149023000Y-97757000D01*
X149023000Y-97777000D01*
X150069786Y-97777000D01*
X150164681Y-97671438D01*
X150134268Y-97562172D01*
X150043647Y-97416038D01*
X150148525Y-97259077D01*
X150200059Y-97000000D01*
X150148525Y-96740923D01*
X150054363Y-96600000D01*
X150148525Y-96459077D01*
X150200049Y-96200049D01*
X150363481Y-96167540D01*
X150323118Y-96264746D01*
X150322883Y-96534073D01*
X150425733Y-96782989D01*
X150616010Y-96973598D01*
X150864746Y-97076882D01*
X151134073Y-97077117D01*
X151175000Y-97060206D01*
X151225733Y-97182989D01*
X151416010Y-97373598D01*
X151664746Y-97476882D01*
X151934073Y-97477117D01*
X152182989Y-97374267D01*
X152373598Y-97183990D01*
X152476882Y-96935254D01*
X152477117Y-96665927D01*
X152374267Y-96417011D01*
X152303200Y-96345820D01*
X152303200Y-96123319D01*
X152340923Y-96148525D01*
X152600000Y-96200059D01*
X152859077Y-96148525D01*
X153000000Y-96054363D01*
X153140923Y-96148525D01*
X153400000Y-96200059D01*
X153659077Y-96148525D01*
X153800000Y-96054363D01*
X153940923Y-96148525D01*
X154200000Y-96200059D01*
X154459077Y-96148525D01*
X154600000Y-96054363D01*
X154740923Y-96148525D01*
X155000000Y-96200059D01*
X155259077Y-96148525D01*
X155400000Y-96054363D01*
X155540923Y-96148525D01*
X155799951Y-96200049D01*
X155851475Y-96459077D01*
X155945637Y-96600000D01*
X155851475Y-96740923D01*
X155799941Y-97000000D01*
X155851475Y-97259077D01*
X155945637Y-97400000D01*
X155851475Y-97540923D01*
X155799941Y-97800000D01*
X155851475Y-98059077D01*
X155956353Y-98216038D01*
X155865732Y-98362172D01*
X155835319Y-98471438D01*
X155930214Y-98577000D01*
X156977000Y-98577000D01*
X156977000Y-98557000D01*
X157023000Y-98557000D01*
X157023000Y-98577000D01*
X158069786Y-98577000D01*
X158164681Y-98471438D01*
X158134268Y-98362172D01*
X158043647Y-98216038D01*
X158148525Y-98059077D01*
X158200059Y-97800000D01*
X158148525Y-97540923D01*
X158054363Y-97400000D01*
X158148525Y-97259077D01*
X158200059Y-97000000D01*
X158148525Y-96740923D01*
X158054363Y-96600000D01*
X158148525Y-96459077D01*
X158200059Y-96200000D01*
X158148525Y-95940923D01*
X158001770Y-95721289D01*
X157782136Y-95574534D01*
X157523059Y-95523000D01*
X156477000Y-95523000D01*
X156477000Y-94476941D01*
X156425466Y-94217864D01*
X156290500Y-94015873D01*
X156290500Y-93330172D01*
X158746836Y-90873836D01*
X158790164Y-90808992D01*
X158808237Y-90805591D01*
X158953567Y-90712073D01*
X159051064Y-90569381D01*
X159085365Y-90400000D01*
X159085365Y-90000000D01*
X159055591Y-89841763D01*
X159029409Y-89801075D01*
X159051064Y-89769381D01*
X159085365Y-89600000D01*
X159085365Y-89290500D01*
X160096828Y-89290500D01*
X160809500Y-90003172D01*
X160809500Y-90003172D01*
G37*
X160809500Y-90003172D02*
X160809500Y-97196828D01*
X159498309Y-98508019D01*
X159444184Y-98544184D01*
X159335104Y-98707434D01*
X159296800Y-98900000D01*
X159296800Y-100391568D01*
X159191568Y-100496800D01*
X158123319Y-100496800D01*
X158148525Y-100459077D01*
X158200059Y-100200000D01*
X158148525Y-99940923D01*
X158054363Y-99800000D01*
X158148525Y-99659077D01*
X158200059Y-99400000D01*
X158148525Y-99140923D01*
X158043647Y-98983962D01*
X158134268Y-98837828D01*
X158164681Y-98728562D01*
X158069786Y-98623000D01*
X157023000Y-98623000D01*
X157023000Y-98643000D01*
X156977000Y-98643000D01*
X156977000Y-98623000D01*
X155930214Y-98623000D01*
X155835319Y-98728562D01*
X155865732Y-98837828D01*
X155956353Y-98983962D01*
X155851475Y-99140923D01*
X155799941Y-99400000D01*
X155851475Y-99659077D01*
X155945637Y-99800000D01*
X155851475Y-99940923D01*
X155799941Y-100200000D01*
X155844299Y-100423000D01*
X151089002Y-100423000D01*
X150458001Y-99791999D01*
X150270808Y-99666922D01*
X150133201Y-99639549D01*
X150134268Y-99637828D01*
X150164681Y-99528562D01*
X150069786Y-99423000D01*
X149023000Y-99423000D01*
X149023000Y-99443000D01*
X148977000Y-99443000D01*
X148977000Y-99423000D01*
X147930214Y-99423000D01*
X147835319Y-99528562D01*
X147861605Y-99623000D01*
X147364001Y-99623000D01*
X147091001Y-99350000D01*
X147264001Y-99177000D01*
X147861605Y-99177000D01*
X147835319Y-99271438D01*
X147930214Y-99377000D01*
X148977000Y-99377000D01*
X148977000Y-99357000D01*
X149023000Y-99357000D01*
X149023000Y-99377000D01*
X150069786Y-99377000D01*
X150164681Y-99271438D01*
X150134268Y-99162172D01*
X150043647Y-99016038D01*
X150148525Y-98859077D01*
X150200059Y-98600000D01*
X150148525Y-98340923D01*
X150043647Y-98183962D01*
X150134268Y-98037828D01*
X150164681Y-97928562D01*
X150069786Y-97823000D01*
X149023000Y-97823000D01*
X149023000Y-97843000D01*
X148977000Y-97843000D01*
X148977000Y-97823000D01*
X147930214Y-97823000D01*
X147835319Y-97928562D01*
X147861605Y-98023000D01*
X147025000Y-98023000D01*
X146804192Y-98066922D01*
X146616999Y-98191999D01*
X146616997Y-98192002D01*
X146285365Y-98523634D01*
X146285365Y-98400000D01*
X146255591Y-98241763D01*
X146229095Y-98200588D01*
X146277000Y-98084936D01*
X146277000Y-97929750D01*
X146170250Y-97823000D01*
X145623000Y-97823000D01*
X145623000Y-97843000D01*
X145577000Y-97843000D01*
X145577000Y-97823000D01*
X145029750Y-97823000D01*
X144923000Y-97929750D01*
X144923000Y-98084936D01*
X144970358Y-98199267D01*
X144948936Y-98230619D01*
X144914635Y-98400000D01*
X144914635Y-98673000D01*
X140977000Y-98673000D01*
X140977000Y-97515064D01*
X144923000Y-97515064D01*
X144923000Y-97670250D01*
X145029750Y-97777000D01*
X145577000Y-97777000D01*
X145577000Y-97279750D01*
X145623000Y-97279750D01*
X145623000Y-97777000D01*
X146170250Y-97777000D01*
X146277000Y-97670250D01*
X146277000Y-97515064D01*
X146211993Y-97358124D01*
X146091876Y-97238007D01*
X145934935Y-97173000D01*
X145729750Y-97173000D01*
X145623000Y-97279750D01*
X145577000Y-97279750D01*
X145470250Y-97173000D01*
X145265065Y-97173000D01*
X145108124Y-97238007D01*
X144988007Y-97358124D01*
X144923000Y-97515064D01*
X140977000Y-97515064D01*
X140977000Y-91391750D01*
X143128500Y-91391750D01*
X143128500Y-91791435D01*
X143193507Y-91948376D01*
X143313624Y-92068493D01*
X143470564Y-92133500D01*
X143870250Y-92133500D01*
X143977000Y-92026750D01*
X143977000Y-91285000D01*
X144023000Y-91285000D01*
X144023000Y-92026750D01*
X144129750Y-92133500D01*
X144529436Y-92133500D01*
X144686376Y-92068493D01*
X144806493Y-91948376D01*
X144871500Y-91791435D01*
X144871500Y-91429750D01*
X145323000Y-91429750D01*
X145323000Y-91584936D01*
X145388007Y-91741876D01*
X145508124Y-91861993D01*
X145665065Y-91927000D01*
X145870250Y-91927000D01*
X145977000Y-91820250D01*
X145977000Y-91323000D01*
X145429750Y-91323000D01*
X145323000Y-91429750D01*
X144871500Y-91429750D01*
X144871500Y-91391750D01*
X144764750Y-91285000D01*
X144023000Y-91285000D01*
X143977000Y-91285000D01*
X143235250Y-91285000D01*
X143128500Y-91391750D01*
X140977000Y-91391750D01*
X140977000Y-90580422D01*
X141142422Y-90415000D01*
X143197696Y-90415000D01*
X143243427Y-90486067D01*
X143266975Y-90502156D01*
X143193507Y-90575624D01*
X143128500Y-90732565D01*
X143128500Y-91132250D01*
X143235250Y-91239000D01*
X143977000Y-91239000D01*
X143977000Y-91219000D01*
X144023000Y-91219000D01*
X144023000Y-91239000D01*
X144764750Y-91239000D01*
X144871500Y-91132250D01*
X144871500Y-90732565D01*
X144806493Y-90575624D01*
X144734301Y-90503432D01*
X144748067Y-90494573D01*
X144845564Y-90351881D01*
X144863158Y-90265000D01*
X145321723Y-90265000D01*
X145314635Y-90300000D01*
X145314635Y-90700000D01*
X145344409Y-90858237D01*
X145370905Y-90899412D01*
X145323000Y-91015064D01*
X145323000Y-91170250D01*
X145429750Y-91277000D01*
X145977000Y-91277000D01*
X145977000Y-91257000D01*
X146023000Y-91257000D01*
X146023000Y-91277000D01*
X146043000Y-91277000D01*
X146043000Y-91323000D01*
X146023000Y-91323000D01*
X146023000Y-91820250D01*
X146129750Y-91927000D01*
X146334935Y-91927000D01*
X146491876Y-91861993D01*
X146611993Y-91741876D01*
X146677000Y-91584936D01*
X146677000Y-91429750D01*
X146570252Y-91323002D01*
X146677000Y-91323002D01*
X146677000Y-91322290D01*
X147027355Y-91672645D01*
X147198326Y-91786885D01*
X147400000Y-91827000D01*
X147820831Y-91827000D01*
X147837927Y-91853567D01*
X147980619Y-91951064D01*
X148150000Y-91985365D01*
X148650000Y-91985365D01*
X148709500Y-91974169D01*
X148709500Y-93200000D01*
X148728755Y-93296800D01*
X144800000Y-93296800D01*
X144607434Y-93335104D01*
X144444184Y-93444184D01*
X143144184Y-94744184D01*
X143035104Y-94907434D01*
X143010269Y-95032290D01*
X142926402Y-95116010D01*
X142823118Y-95364746D01*
X142822883Y-95634073D01*
X142925733Y-95882989D01*
X143116010Y-96073598D01*
X143364746Y-96176882D01*
X143634073Y-96177117D01*
X143882989Y-96074267D01*
X144073598Y-95883990D01*
X144176882Y-95635254D01*
X144177117Y-95365927D01*
X144109456Y-95202176D01*
X145008432Y-94303200D01*
X149557559Y-94303200D01*
X149523000Y-94476941D01*
X149523000Y-95523000D01*
X148476941Y-95523000D01*
X148217864Y-95574534D01*
X147998230Y-95721289D01*
X147851475Y-95940923D01*
X147799941Y-96200000D01*
X147851475Y-96459077D01*
X147945637Y-96600000D01*
X147851475Y-96740923D01*
X147799941Y-97000000D01*
X147851475Y-97259077D01*
X147956353Y-97416038D01*
X147865732Y-97562172D01*
X147835319Y-97671438D01*
X147930214Y-97777000D01*
X148977000Y-97777000D01*
X148977000Y-97757000D01*
X149023000Y-97757000D01*
X149023000Y-97777000D01*
X150069786Y-97777000D01*
X150164681Y-97671438D01*
X150134268Y-97562172D01*
X150043647Y-97416038D01*
X150148525Y-97259077D01*
X150200059Y-97000000D01*
X150148525Y-96740923D01*
X150054363Y-96600000D01*
X150148525Y-96459077D01*
X150200049Y-96200049D01*
X150363481Y-96167540D01*
X150323118Y-96264746D01*
X150322883Y-96534073D01*
X150425733Y-96782989D01*
X150616010Y-96973598D01*
X150864746Y-97076882D01*
X151134073Y-97077117D01*
X151175000Y-97060206D01*
X151225733Y-97182989D01*
X151416010Y-97373598D01*
X151664746Y-97476882D01*
X151934073Y-97477117D01*
X152182989Y-97374267D01*
X152373598Y-97183990D01*
X152476882Y-96935254D01*
X152477117Y-96665927D01*
X152374267Y-96417011D01*
X152303200Y-96345820D01*
X152303200Y-96123319D01*
X152340923Y-96148525D01*
X152600000Y-96200059D01*
X152859077Y-96148525D01*
X153000000Y-96054363D01*
X153140923Y-96148525D01*
X153400000Y-96200059D01*
X153659077Y-96148525D01*
X153800000Y-96054363D01*
X153940923Y-96148525D01*
X154200000Y-96200059D01*
X154459077Y-96148525D01*
X154600000Y-96054363D01*
X154740923Y-96148525D01*
X155000000Y-96200059D01*
X155259077Y-96148525D01*
X155400000Y-96054363D01*
X155540923Y-96148525D01*
X155799951Y-96200049D01*
X155851475Y-96459077D01*
X155945637Y-96600000D01*
X155851475Y-96740923D01*
X155799941Y-97000000D01*
X155851475Y-97259077D01*
X155945637Y-97400000D01*
X155851475Y-97540923D01*
X155799941Y-97800000D01*
X155851475Y-98059077D01*
X155956353Y-98216038D01*
X155865732Y-98362172D01*
X155835319Y-98471438D01*
X155930214Y-98577000D01*
X156977000Y-98577000D01*
X156977000Y-98557000D01*
X157023000Y-98557000D01*
X157023000Y-98577000D01*
X158069786Y-98577000D01*
X158164681Y-98471438D01*
X158134268Y-98362172D01*
X158043647Y-98216038D01*
X158148525Y-98059077D01*
X158200059Y-97800000D01*
X158148525Y-97540923D01*
X158054363Y-97400000D01*
X158148525Y-97259077D01*
X158200059Y-97000000D01*
X158148525Y-96740923D01*
X158054363Y-96600000D01*
X158148525Y-96459077D01*
X158200059Y-96200000D01*
X158148525Y-95940923D01*
X158001770Y-95721289D01*
X157782136Y-95574534D01*
X157523059Y-95523000D01*
X156477000Y-95523000D01*
X156477000Y-94476941D01*
X156425466Y-94217864D01*
X156290500Y-94015873D01*
X156290500Y-93330172D01*
X158746836Y-90873836D01*
X158790164Y-90808992D01*
X158808237Y-90805591D01*
X158953567Y-90712073D01*
X159051064Y-90569381D01*
X159085365Y-90400000D01*
X159085365Y-90000000D01*
X159055591Y-89841763D01*
X159029409Y-89801075D01*
X159051064Y-89769381D01*
X159085365Y-89600000D01*
X159085365Y-89290500D01*
X160096828Y-89290500D01*
X160809500Y-90003172D01*
G36*
X154046837Y-88712294D02*
X154021511Y-88839615D01*
X153946433Y-88887927D01*
X153848936Y-89030619D01*
X153814635Y-89200000D01*
X153814635Y-89600000D01*
X153844409Y-89758237D01*
X153870591Y-89798925D01*
X153848936Y-89830619D01*
X153814635Y-90000000D01*
X153814635Y-90400000D01*
X153844409Y-90558237D01*
X153883587Y-90619121D01*
X153823118Y-90764746D01*
X153822883Y-91034073D01*
X153925733Y-91282989D01*
X154116010Y-91473598D01*
X154364746Y-91576882D01*
X154634073Y-91577117D01*
X154882989Y-91474267D01*
X155073598Y-91283990D01*
X155150060Y-91099848D01*
X155225733Y-91282989D01*
X155416010Y-91473598D01*
X155664746Y-91576882D01*
X155934073Y-91577117D01*
X156182989Y-91474267D01*
X156373598Y-91283990D01*
X156450060Y-91099848D01*
X156525733Y-91282989D01*
X156716010Y-91473598D01*
X156746902Y-91486426D01*
X155763500Y-92469828D01*
X155446836Y-92153164D01*
X155287706Y-92046837D01*
X155100000Y-92009500D01*
X153519102Y-92009500D01*
X153519102Y-90128602D01*
X153481765Y-89940896D01*
X153375438Y-89781766D01*
X152946836Y-89353164D01*
X152787706Y-89246837D01*
X152600000Y-89209500D01*
X152202656Y-89209500D01*
X152162073Y-89146433D01*
X152019381Y-89048936D01*
X151850000Y-89014635D01*
X151350000Y-89014635D01*
X151191763Y-89044409D01*
X151189749Y-89045705D01*
X151134935Y-89023000D01*
X150929750Y-89023000D01*
X150823000Y-89129750D01*
X150823000Y-89677000D01*
X150843000Y-89677000D01*
X150843000Y-89723000D01*
X150823000Y-89723000D01*
X150823000Y-90270250D01*
X151029750Y-90477000D01*
X151577000Y-90477000D01*
X151577000Y-90457000D01*
X151623000Y-90457000D01*
X151623000Y-90477000D01*
X152170250Y-90477000D01*
X152277000Y-90370250D01*
X152277000Y-90190500D01*
X152396828Y-90190500D01*
X152538102Y-90331774D01*
X152538102Y-92228602D01*
X152554194Y-92309500D01*
X152103172Y-92309500D01*
X152090500Y-92296828D01*
X152090500Y-91902656D01*
X152153567Y-91862073D01*
X152251064Y-91719381D01*
X152285365Y-91550000D01*
X152285365Y-91050000D01*
X152255591Y-90891763D01*
X152254295Y-90889750D01*
X152277000Y-90834936D01*
X152277000Y-90629750D01*
X152170250Y-90523000D01*
X151623000Y-90523000D01*
X151623000Y-90543000D01*
X151577000Y-90543000D01*
X151577000Y-90523000D01*
X151029750Y-90523000D01*
X150938115Y-90614635D01*
X150550000Y-90614635D01*
X150394491Y-90643896D01*
X150250000Y-90614635D01*
X149750000Y-90614635D01*
X149594491Y-90643896D01*
X149450000Y-90614635D01*
X149061885Y-90614635D01*
X148970250Y-90523000D01*
X148423000Y-90523000D01*
X148423000Y-90543000D01*
X148377000Y-90543000D01*
X148377000Y-90523000D01*
X147829750Y-90523000D01*
X147723000Y-90629750D01*
X147723000Y-90773000D01*
X147618290Y-90773000D01*
X147427000Y-90581710D01*
X147427000Y-90265000D01*
X147723000Y-90265000D01*
X147723000Y-90370250D01*
X147829750Y-90477000D01*
X148377000Y-90477000D01*
X148377000Y-90457000D01*
X148423000Y-90457000D01*
X148423000Y-90477000D01*
X148970250Y-90477000D01*
X149177000Y-90270250D01*
X149177000Y-89723000D01*
X149223000Y-89723000D01*
X149223000Y-90270250D01*
X149329750Y-90377000D01*
X149534935Y-90377000D01*
X149600000Y-90350049D01*
X149665065Y-90377000D01*
X149870250Y-90377000D01*
X149977000Y-90270250D01*
X149977000Y-89723000D01*
X150023000Y-89723000D01*
X150023000Y-90270250D01*
X150129750Y-90377000D01*
X150334935Y-90377000D01*
X150400000Y-90350049D01*
X150465065Y-90377000D01*
X150670250Y-90377000D01*
X150777000Y-90270250D01*
X150777000Y-89723000D01*
X150023000Y-89723000D01*
X149977000Y-89723000D01*
X149223000Y-89723000D01*
X149177000Y-89723000D01*
X149157000Y-89723000D01*
X149157000Y-89677000D01*
X149177000Y-89677000D01*
X149177000Y-89129750D01*
X149223000Y-89129750D01*
X149223000Y-89677000D01*
X149977000Y-89677000D01*
X149977000Y-89129750D01*
X150023000Y-89129750D01*
X150023000Y-89677000D01*
X150777000Y-89677000D01*
X150777000Y-89129750D01*
X150670250Y-89023000D01*
X150465065Y-89023000D01*
X150400000Y-89049951D01*
X150334935Y-89023000D01*
X150129750Y-89023000D01*
X150023000Y-89129750D01*
X149977000Y-89129750D01*
X149870250Y-89023000D01*
X149665065Y-89023000D01*
X149600000Y-89049951D01*
X149534935Y-89023000D01*
X149329750Y-89023000D01*
X149223000Y-89129750D01*
X149177000Y-89129750D01*
X149070250Y-89023000D01*
X148865065Y-89023000D01*
X148808009Y-89046633D01*
X148650000Y-89014635D01*
X148070000Y-89014635D01*
X147911763Y-89044409D01*
X147766433Y-89137927D01*
X147716504Y-89211000D01*
X144864342Y-89211000D01*
X144850091Y-89135263D01*
X144756573Y-88989933D01*
X144613881Y-88892436D01*
X144444500Y-88858135D01*
X143555500Y-88858135D01*
X143397263Y-88887909D01*
X143251933Y-88981427D01*
X143197563Y-89061000D01*
X140862000Y-89061000D01*
X140602923Y-89112534D01*
X140452393Y-89213115D01*
X140383289Y-89259289D01*
X139821289Y-89821289D01*
X139674534Y-90040923D01*
X139623000Y-90300000D01*
X139623000Y-98443394D01*
X138627000Y-97447394D01*
X138627000Y-88627000D01*
X154103828Y-88627000D01*
X154046837Y-88712294D01*
X154046837Y-88712294D01*
G37*
X154046837Y-88712294D02*
X154021511Y-88839615D01*
X153946433Y-88887927D01*
X153848936Y-89030619D01*
X153814635Y-89200000D01*
X153814635Y-89600000D01*
X153844409Y-89758237D01*
X153870591Y-89798925D01*
X153848936Y-89830619D01*
X153814635Y-90000000D01*
X153814635Y-90400000D01*
X153844409Y-90558237D01*
X153883587Y-90619121D01*
X153823118Y-90764746D01*
X153822883Y-91034073D01*
X153925733Y-91282989D01*
X154116010Y-91473598D01*
X154364746Y-91576882D01*
X154634073Y-91577117D01*
X154882989Y-91474267D01*
X155073598Y-91283990D01*
X155150060Y-91099848D01*
X155225733Y-91282989D01*
X155416010Y-91473598D01*
X155664746Y-91576882D01*
X155934073Y-91577117D01*
X156182989Y-91474267D01*
X156373598Y-91283990D01*
X156450060Y-91099848D01*
X156525733Y-91282989D01*
X156716010Y-91473598D01*
X156746902Y-91486426D01*
X155763500Y-92469828D01*
X155446836Y-92153164D01*
X155287706Y-92046837D01*
X155100000Y-92009500D01*
X153519102Y-92009500D01*
X153519102Y-90128602D01*
X153481765Y-89940896D01*
X153375438Y-89781766D01*
X152946836Y-89353164D01*
X152787706Y-89246837D01*
X152600000Y-89209500D01*
X152202656Y-89209500D01*
X152162073Y-89146433D01*
X152019381Y-89048936D01*
X151850000Y-89014635D01*
X151350000Y-89014635D01*
X151191763Y-89044409D01*
X151189749Y-89045705D01*
X151134935Y-89023000D01*
X150929750Y-89023000D01*
X150823000Y-89129750D01*
X150823000Y-89677000D01*
X150843000Y-89677000D01*
X150843000Y-89723000D01*
X150823000Y-89723000D01*
X150823000Y-90270250D01*
X151029750Y-90477000D01*
X151577000Y-90477000D01*
X151577000Y-90457000D01*
X151623000Y-90457000D01*
X151623000Y-90477000D01*
X152170250Y-90477000D01*
X152277000Y-90370250D01*
X152277000Y-90190500D01*
X152396828Y-90190500D01*
X152538102Y-90331774D01*
X152538102Y-92228602D01*
X152554194Y-92309500D01*
X152103172Y-92309500D01*
X152090500Y-92296828D01*
X152090500Y-91902656D01*
X152153567Y-91862073D01*
X152251064Y-91719381D01*
X152285365Y-91550000D01*
X152285365Y-91050000D01*
X152255591Y-90891763D01*
X152254295Y-90889750D01*
X152277000Y-90834936D01*
X152277000Y-90629750D01*
X152170250Y-90523000D01*
X151623000Y-90523000D01*
X151623000Y-90543000D01*
X151577000Y-90543000D01*
X151577000Y-90523000D01*
X151029750Y-90523000D01*
X150938115Y-90614635D01*
X150550000Y-90614635D01*
X150394491Y-90643896D01*
X150250000Y-90614635D01*
X149750000Y-90614635D01*
X149594491Y-90643896D01*
X149450000Y-90614635D01*
X149061885Y-90614635D01*
X148970250Y-90523000D01*
X148423000Y-90523000D01*
X148423000Y-90543000D01*
X148377000Y-90543000D01*
X148377000Y-90523000D01*
X147829750Y-90523000D01*
X147723000Y-90629750D01*
X147723000Y-90773000D01*
X147618290Y-90773000D01*
X147427000Y-90581710D01*
X147427000Y-90265000D01*
X147723000Y-90265000D01*
X147723000Y-90370250D01*
X147829750Y-90477000D01*
X148377000Y-90477000D01*
X148377000Y-90457000D01*
X148423000Y-90457000D01*
X148423000Y-90477000D01*
X148970250Y-90477000D01*
X149177000Y-90270250D01*
X149177000Y-89723000D01*
X149223000Y-89723000D01*
X149223000Y-90270250D01*
X149329750Y-90377000D01*
X149534935Y-90377000D01*
X149600000Y-90350049D01*
X149665065Y-90377000D01*
X149870250Y-90377000D01*
X149977000Y-90270250D01*
X149977000Y-89723000D01*
X150023000Y-89723000D01*
X150023000Y-90270250D01*
X150129750Y-90377000D01*
X150334935Y-90377000D01*
X150400000Y-90350049D01*
X150465065Y-90377000D01*
X150670250Y-90377000D01*
X150777000Y-90270250D01*
X150777000Y-89723000D01*
X150023000Y-89723000D01*
X149977000Y-89723000D01*
X149223000Y-89723000D01*
X149177000Y-89723000D01*
X149157000Y-89723000D01*
X149157000Y-89677000D01*
X149177000Y-89677000D01*
X149177000Y-89129750D01*
X149223000Y-89129750D01*
X149223000Y-89677000D01*
X149977000Y-89677000D01*
X149977000Y-89129750D01*
X150023000Y-89129750D01*
X150023000Y-89677000D01*
X150777000Y-89677000D01*
X150777000Y-89129750D01*
X150670250Y-89023000D01*
X150465065Y-89023000D01*
X150400000Y-89049951D01*
X150334935Y-89023000D01*
X150129750Y-89023000D01*
X150023000Y-89129750D01*
X149977000Y-89129750D01*
X149870250Y-89023000D01*
X149665065Y-89023000D01*
X149600000Y-89049951D01*
X149534935Y-89023000D01*
X149329750Y-89023000D01*
X149223000Y-89129750D01*
X149177000Y-89129750D01*
X149070250Y-89023000D01*
X148865065Y-89023000D01*
X148808009Y-89046633D01*
X148650000Y-89014635D01*
X148070000Y-89014635D01*
X147911763Y-89044409D01*
X147766433Y-89137927D01*
X147716504Y-89211000D01*
X144864342Y-89211000D01*
X144850091Y-89135263D01*
X144756573Y-88989933D01*
X144613881Y-88892436D01*
X144444500Y-88858135D01*
X143555500Y-88858135D01*
X143397263Y-88887909D01*
X143251933Y-88981427D01*
X143197563Y-89061000D01*
X140862000Y-89061000D01*
X140602923Y-89112534D01*
X140452393Y-89213115D01*
X140383289Y-89259289D01*
X139821289Y-89821289D01*
X139674534Y-90040923D01*
X139623000Y-90300000D01*
X139623000Y-98443394D01*
X138627000Y-97447394D01*
X138627000Y-88627000D01*
X154103828Y-88627000D01*
X154046837Y-88712294D01*
M02*
